<?xml version="1.0" encoding="utf-8"?>
<!-- Generator: Adobe Illustrator 16.0.0, SVG Export Plug-In . SVG Version: 6.00 Build 0)  -->
<!DOCTYPE svg PUBLIC "-//W3C//DTD SVG 1.1//EN" "http://www.w3.org/Graphics/SVG/1.1/DTD/svg11.dtd">
<svg version="1.1" id="Layer_1" xmlns="http://www.w3.org/2000/svg" xmlns:xlink="http://www.w3.org/1999/xlink" x="0px" y="0px"
	 width="1400px" height="1724px" viewBox="0 0 1400 1724" enable-background="new 0 0 1400 1724" xml:space="preserve">
<g opacity="0.2">
	<g>
		<g>
			<path fill="#CACEDD" d="M966.5,494c-28-478.233,396.571-564,833.08-456.76c436.51,107.24,348.816,950.838,246.55,1149.838
				c-150.57,292.99-645.279,515.437-889.303,534.098c-411.785,31.49-666.087-333.102-621.327-494.58
				C613,947,994.5,972.233,966.5,494L966.5,494z M9.846,889.156C98.904,814.429,343.271,759.943,417.999,849
				s21.582,371.432-67.475,446.16c-89.058,74.728-291.896-20.387-366.624-109.444S-79.211,963.884,9.846,889.156L9.846,889.156z"/>
		</g>
	</g>
</g>
</svg>
