<svg xmlns="http://www.w3.org/2000/svg" width="50" height="50" viewBox="0 0 50 50">
    <defs>
        <filter id="ykjvdbm0ga">
            <feColorMatrix in="SourceGraphic" values="0 0 0 0 1.000000 0 0 0 0 1.000000 0 0 0 0 1.000000 0 0 0 1.000000 0"/>
        </filter>
    </defs>
    <g fill="none" fill-rule="evenodd">
        <g>
            <g>
                <g>
                    <g>
                        <g transform="translate(-280 -1532) translate(60 1324) translate(0 183) translate(0 1) translate(220 24)">
                            <circle cx="25" cy="25" r="25" fill="#FF6330"/>
                            <g filter="url(#ykjvdbm0ga)" transform="translate(13 13)">
                                <g>
                                    <path fill="#000" fill-rule="nonzero" d="M10.92 2.705l-.23 1.32 1.19-.62c.075-.04.16-.04.235 0l1.185.625-.225-1.325c-.015-.08.015-.165.07-.22l.965-.935-1.325-.195c-.08-.01-.15-.065-.19-.135l-.59-1.205-.595 1.2c-.035.075-.105.125-.19.135l-1.33.19.96.94c.06.06.085.145.07.225zM18.715 3.805l-.195 1.12 1.005-.525c.075-.04.16-.04.235 0l1.005.53-.19-1.12c-.015-.08.015-.165.07-.22l.815-.79-1.125-.165c-.08-.01-.15-.065-.19-.135l-.5-1.02-.505 1.02c-.035.075-.105.125-.19.135l-1.125.16.81.795c.065.05.095.135.08.215zM3.42 3.805l-.195 1.12L4.23 4.4c.075-.04.16-.04.235 0l1.005.53-.19-1.12c-.015-.08.015-.165.07-.22l.815-.79-1.125-.165c-.08-.01-.15-.065-.19-.135l-.5-1.02-.5 1.01c-.035.075-.105.125-.19.135l-1.125.16.815.795c.06.06.085.145.07.225zM10.145 7.405V8.81c0 1.025.83 1.855 1.855 1.855s1.855-.83 1.855-1.855V7.405c0-1.025-.83-1.855-1.855-1.855s-1.855.83-1.855 1.855zM14.805 11.165h-.915c-.21-.005-.415-.09-.57-.235l-.15.42c-.23.645-.94.98-1.585.75-.355-.125-.63-.41-.755-.765l-.14-.41c-.16.15-.375.235-.6.235h-.9c-1.22 0-2.205.99-2.205 2.205v3.61H17.01v-3.61c0-1.21-.985-2.195-2.205-2.2zM19.465 11.345c.92 0 1.665-.745 1.665-1.665V8.405c0-.92-.745-1.665-1.665-1.665S17.8 7.485 17.8 8.405V9.68c0 .92.745 1.66 1.665 1.665zM22.015 11.74h-.83c-.185-.005-.365-.075-.505-.195l-.125.35c-.215.6-.875.91-1.47.695-.33-.12-.585-.38-.7-.71l-.115-.34c-.15.125-.34.195-.535.195h-.765c.355.47.55 1.045.55 1.63v3.61H24v-3.26c0-1.085-.89-1.97-1.985-1.975zM6.27 11.74h-.015c-.185-.005-.365-.075-.505-.195l-.125.35c-.215.6-.875.91-1.47.695-.33-.12-.585-.38-.7-.71l-.115-.34c-.15.125-.34.195-.535.195h-.82c-1.095 0-1.98.89-1.985 1.985v3.26h6.485v-3.61c0-.59.19-1.165.55-1.63H6.27zM4.535 6.74c-.92 0-1.665.745-1.665 1.665V9.68c0 .92.745 1.665 1.665 1.665S6.2 10.6 6.2 9.68V8.405c0-.92-.745-1.665-1.665-1.665z" transform="translate(0 3)"/>
                                </g>
                            </g>
                        </g>
                    </g>
                </g>
            </g>
        </g>
    </g>
</svg>
