<?xml version="1.0" encoding="utf-8"?>
<!-- Generator: Adobe Illustrator 16.0.0, SVG Export Plug-In . SVG Version: 6.00 Build 0)  -->
<!DOCTYPE svg PUBLIC "-//W3C//DTD SVG 1.1//EN" "http://www.w3.org/Graphics/SVG/1.1/DTD/svg11.dtd">
<svg version="1.1" id="Layer_1" xmlns="http://www.w3.org/2000/svg" xmlns:xlink="http://www.w3.org/1999/xlink" x="0px" y="0px"
	 width="50px" height="50px" viewBox="0 0 50 50" enable-background="new 0 0 50 50" xml:space="preserve">
<g>
	<g>
		<g>
			<g>
				<g>
					<g transform="translate(-608 -1532) translate(60 1324) translate(0 183) translate(328) translate(220 25)">
						<circle fill="#FF6330" cx="25" cy="25" r="25"/>
						<g transform="translate(13 13)">
							<path fill="#FCFCFC" d="M21.2,18.4c-0.777,0-1.479,0.315-1.987,0.828l-7.304-5.42C12.219,13.277,12.4,12.66,12.4,12
								c0-0.282-0.036-0.555-0.097-0.819l6.419-2.278c0.469,0.89,1.4,1.497,2.478,1.497c1.546,0,2.8-1.254,2.8-2.8
								s-1.254-2.8-2.8-2.8s-2.8,1.254-2.8,2.8c0,0.188,0.02,0.372,0.055,0.55l-6.42,2.278c-0.336-0.69-0.883-1.256-1.559-1.613
								l1.288-3.291C11.968,5.572,12.181,5.6,12.4,5.6c1.545,0,2.8-1.254,2.8-2.8c0-1.546-1.255-2.8-2.8-2.8
								c-1.546,0-2.8,1.254-2.8,2.8c0,1.043,0.572,1.952,1.418,2.433L9.73,8.526C9.433,8.446,9.122,8.4,8.8,8.4
								c-0.582,0-1.13,0.142-1.618,0.387L4.648,4.9C5.23,4.387,5.6,3.638,5.6,2.8C5.6,1.254,4.346,0,2.8,0C1.254,0,0,1.254,0,2.8
								c0,1.546,1.254,2.8,2.8,2.8c0.421,0,0.82-0.096,1.178-0.262L6.51,9.222C5.71,9.882,5.2,10.882,5.2,12
								c0,1.064,0.464,2.016,1.198,2.676l-2.313,3.238C3.7,17.714,3.264,17.6,2.8,17.6C1.254,17.6,0,18.854,0,20.4
								c0,1.545,1.254,2.8,2.8,2.8c1.546,0,2.8-1.255,2.8-2.8c0-0.795-0.333-1.512-0.865-2.021l2.311-3.236
								C7.566,15.434,8.163,15.6,8.8,15.6c1.04,0,1.975-0.442,2.632-1.148l7.304,5.42c-0.215,0.396-0.336,0.848-0.336,1.33
								c0,1.546,1.254,2.8,2.8,2.8s2.8-1.254,2.8-2.8S22.746,18.4,21.2,18.4z M20.283,7.317L20.8,7.834l1.718-1.717l0.565,0.566
								L20.8,8.966l-1.083-1.083L20.283,7.317z M10.917,3.083l0.566-0.566L12,3.034l1.717-1.717l0.566,0.566L12,4.166L10.917,3.083
								L10.917,3.083z M2.4,21.766l-1.083-1.082l0.566-0.565L2.4,20.634l1.717-1.717l0.566,0.565L2.4,21.766z"/>
						</g>
					</g>
				</g>
			</g>
		</g>
	</g>
</g>
</svg>
