<svg xmlns="http://www.w3.org/2000/svg" width="50" height="50" viewBox="0 0 50 50">
    <defs>
        <filter id="cisutu1zta">
            <feColorMatrix in="SourceGraphic" values="0 0 0 0 1.000000 0 0 0 0 1.000000 0 0 0 0 1.000000 0 0 0 1.000000 0"/>
        </filter>
    </defs>
    <g fill="none" fill-rule="evenodd">
        <g>
            <g>
                <g>
                    <g>
                        <g transform="translate(-1266 -1532) translate(60 1324) translate(0 183) translate(984) translate(222 25)">
                            <circle cx="25" cy="25" r="25" fill="#FF6330"/>
                            <g fill="#000" fill-rule="nonzero" filter="url(#cisutu1zta)" transform="translate(13 13)">
                                <path d="M14.136 18.52l-3.294-.716v-.974c.172-.249.333-.567.5-.897.124-.246.311-.618.39-.707.535-.523 1.105-1.173 1.282-2.034.177-.856-.046-1.296-.175-1.468 0-.603 0-1.703-.21-2.51-.024-.973-.215-1.552-.672-2.05-.344-.372-.829-.453-1.217-.519-.126-.021-.315-.052-.372-.081-.655-.365-1.322-.543-2.146-.564-1.665.063-3.711 1.123-4.397 3.025-.195.54-.195 1.348-.177 2.271l-.002.367c-.12.235-.343.675-.166 1.53.177.862.747 1.511 1.278 2.03.084.095.276.468.402.716.168.328.329.645.501.892v.974l-3.294.717C.994 18.816 0 20.049 0 21.452v1.798c0 .414.336.75.75.75h15c.414 0 .75-.336.75-.75v-1.799c0-1.402-.995-2.635-2.364-2.93z"/>
                                <path d="M17.25 0c-3.15 0-5.775 2.167-6.519 5.087.057.027.119.035.174.064l.084.015c.484.082 1.38.234 2.07.981.687.748 1.01 1.611 1.064 2.864.177.79.21 1.696.216 2.34.16.377.274.905.22 1.583.825.36 1.732.566 2.691.566 3.727 0 6.75-3.023 6.75-6.75C24 3.022 20.977 0 17.25 0zm2.031 9.531c-.147.146-.339.219-.531.219s-.384-.073-.531-.219l-2.25-2.25c-.14-.141-.219-.332-.219-.531v-3c0-.414.336-.75.75-.75s.75.336.75.75v2.69l2.031 2.03c.293.293.293.767 0 1.061z"/>
                            </g>
                        </g>
                    </g>
                </g>
            </g>
        </g>
    </g>
</svg>
