<svg xmlns="http://www.w3.org/2000/svg" width="50" height="50" viewBox="0 0 50 50">
    <defs>
        <filter id="bvngkvhnla">
            <feColorMatrix in="SourceGraphic" values="0 0 0 0 1.000000 0 0 0 0 1.000000 0 0 0 0 1.000000 0 0 0 1.000000 0"/>
        </filter>
    </defs>
    <g fill="none" fill-rule="evenodd">
        <g>
            <g>
                <g>
                    <g>
                        <g transform="translate(-937 -1532) translate(60 1324) translate(0 183) translate(656 1) translate(221 24)">
                            <circle cx="25" cy="25" r="25" fill="#FF6330"/>
                            <g fill="#000" fill-rule="nonzero" filter="url(#bvngkvhnla)" transform="translate(13 13)">
                                <path d="M4.552 16.448h.414c.461 0 .883.158 1.228.414h1.692l-3.312-1.655h-.022v1.241zM11.586 14.793c0 .229-.185.414-.414.414h-.485c.094.34.088.704-.053 1.044-.1.24-.251.447-.437.611h1.39c.913 0 1.654-.741 1.654-1.655v-4.138c0-.914-.74-1.655-1.655-1.655v5.38z"/>
                                <path d="M4.966 17.276H3.724v-2.494l-1.982-.991.37-.74 6.624 3.31c.113.057.24.087.367.087.341 0 .635-.197.767-.514.162-.39-.043-.877-.457-1.084l-6.562-3.28c-.113-.057-.24-.087-.368-.087h-.414C.929 11.483 0 12.41 0 13.552v3.31c0 1.14.928 2.069 2.069 2.069H3.724c.457 0 .828.371.828.828v3.31c0 .456.37.828.827.828.457 0 .828-.372.828-.828v-4.552c0-.684-.557-1.241-1.241-1.241z"/>
                                <circle cx="2.483" cy="9" r="1.655"/>
                                <path d="M3.724 19.759H0v4.138h3.954c-.142-.245-.23-.525-.23-.828v-3.31zM19.712 1.552C19.313.842 18.887.338 18.62.059c-.267.28-.693.783-1.091 1.493h2.182zM17.129 2.38c-.29.697-.509 1.53-.56 2.482h4.104c-.052-.953-.27-1.785-.56-2.483h-2.984zm1.078 1.654h-.828v-.827h.828v.827zm1.655 0h-.828v-.827h.828v.827zM19.673 10.55c1.097-.218 2.073-.773 2.82-1.55h-1.837c-.318.646-.673 1.163-.983 1.55zM17.569.001c-1.098.219-2.074.774-2.821 1.55h1.838c.317-.645.672-1.162.983-1.55zM22.493 1.552C21.746.775 20.77.22 19.673.002c.31.387.665.904.983 1.55h1.837zM19.712 9h-2.183c.399.71.825 1.213 1.091 1.493.267-.28.693-.783 1.092-1.493zM20.673 5.69h-4.104c.051.953.27 1.784.56 2.482h2.984c.29-.698.508-1.53.56-2.482zm-2.466 1.655h-.828v-.828h.828v.828zm1.655 0h-.828v-.828h.828v.828zM21.5 4.862h2.48c-.07-.91-.366-1.755-.833-2.483h-2.14c.26.715.449 1.545.494 2.483zM21.007 8.172h2.14c.467-.727.762-1.573.832-2.482H21.5c-.044.938-.232 1.767-.493 2.482zM16.586 9h-1.838c.747.777 1.723 1.332 2.82 1.55-.31-.387-.665-.904-.982-1.55zM16.235 2.38h-2.14c-.467.727-.763 1.573-.833 2.482h2.48c.043-.938.232-1.768.493-2.483zM15.74 5.69h-2.478c.07.91.365 1.755.833 2.482h2.14c-.261-.715-.45-1.544-.494-2.482zM9.848 8.42l-.662-.496-.496.662V4.034c0-.684.557-1.24 1.241-1.24h.414l-.662.496.496.662 2.097-1.573L10.179.807l-.496.662.662.497H9.93c-1.14 0-2.069.928-2.069 2.068v4.552l-.496-.662-.663.497 1.573 2.096 1.572-2.096zM10.924 20.917l.662.497H9.931c-.228 0-.414-.186-.414-.414v-1.241l.497.662.662-.496-1.573-2.098-1.572 2.097.662.496.497-.661V21c0 .684.557 1.241 1.241 1.241h1.655l-.662.497.497.662 2.096-1.572-2.096-1.573-.497.662zM16.138 23.897h6.62c.54 0 1-.346 1.171-.828h-8.962c.171.482.631.828 1.17.828zM15.724 18.517v3.724h7.448v-3.724c0-.684-.557-1.241-1.241-1.241h-4.965c-.685 0-1.242.557-1.242 1.241zm3.724-.414c.685 0 1.242.557 1.242 1.242 0 .684-.557 1.241-1.242 1.241-.684 0-1.241-.557-1.241-1.241 0-.685.557-1.242 1.241-1.242z"/>
                                <circle cx="19.448" cy="19.345" r="1"/>
                            </g>
                        </g>
                    </g>
                </g>
            </g>
        </g>
    </g>
</svg>
