<?xml version="1.0" encoding="utf-8"?>
<!-- Generator: Adobe Illustrator 16.0.0, SVG Export Plug-In . SVG Version: 6.00 Build 0)  -->
<!DOCTYPE svg PUBLIC "-//W3C//DTD SVG 1.1//EN" "http://www.w3.org/Graphics/SVG/1.1/DTD/svg11.dtd">
<svg version="1.1" id="Layer_1" xmlns="http://www.w3.org/2000/svg" xmlns:xlink="http://www.w3.org/1999/xlink" x="0px" y="0px"
	 width="677px" height="250.5px" viewBox="0 0 677 250.5" enable-background="new 0 0 677 250.5" xml:space="preserve">
<path display="none" fill="#97A6BA" d="M106.914,642.307c2.18,7.144-49.745,33.047-49.745,33.047l3.261,5.951l-15.174,8.063
	l14.92-1.72l-0.505,2.628l-20.046,2.308l-2.291,1.257l-1.031-1.905l-4.016,1.709l-6.827-12.987l3.702-1.931l-1.144-2.111
	l22.991-11.659l3.31,5.739c0,0,50.351-23.923,54.118-35.432"/>
<path display="none" fill="#FFFFFF" d="M139.962,392.068C125.688,405.225,86.134,420.8,86.134,420.8l1.925,4.325l-15.782,6.808
	l15.01-0.49l-0.718,2.563L66.4,434.663l-2.386,1.063l-1.295-2.178l-4.541,2.009l-6.233-13.265l5.161-2.302l-0.967-2.201
	l23.867-9.741l1.969,4.168c0,0,29.636-9.491,57.694-29.063"/>
<g>
	<g>
		<path fill="#9B9B9B" d="M110.9,27.412c9.75-1.444,19.66-1.441,29.411,0.002l4.371,16.127c9.27,2.129,18.116,5.793,26.177,10.843
			l14.495-8.312c7.924,5.879,14.941,12.893,20.819,20.816l-8.314,14.496c4.499,7.183,7.901,14.99,10.092,23.165
			c-6.316-3.5-67.566-36.371-113.726-20.646l11.886-40.271l0.386-0.09l4.059-14.974L110.9,27.412z"/>
		<path fill="#B2B2B2" d="M103.188,81.476c-3.037,0.627-6.029,1.431-8.962,2.429l11.886-40.271l0.386-0.09l4.059-14.974l0.344-1.157
			c11.048-1.64,18.339-1.754,29.411,0.002l4.371,16.127c9.023,2.074,17.648,5.603,25.536,10.447
			C132.135,54.803,112.703,69.566,103.188,81.476z"/>
		<path fill="#C3C3C3" d="M150.87,208.098l31.222-105.551c23.708,9.012,36.823,15.207,43.684,18.846
			c0.353,6.669,0.035,13.361-0.947,19.982l-16.126,4.369c-2.129,9.271-5.794,18.121-10.843,26.18l8.314,14.494
			c-5.878,7.922-12.896,14.938-20.819,20.813l-14.495-8.313C164.611,202.834,157.893,205.916,150.87,208.098z"/>
		<path fill="#C3C3C3" d="M99.109,45.595c-3.441,12.321-9.007,31.849-13.754,46.733c-7.493,23.504-16.007,46.326-3.405,61.994
			L25.573,134.48c-0.588-7.518-0.329-15.082,0.777-22.548l16.13-4.372c2.128-9.268,5.793-18.115,10.843-26.175L45.009,66.89
			c5.878-7.924,12.892-14.938,20.819-20.815l14.493,8.311C86.212,50.697,92.522,47.746,99.109,45.595z"/>
		<g>
			<path fill="#515151" d="M246.166,93.324V80.759h15.686v12.565H246.166z M246.166,148.355v-47.58h15.686v47.58H246.166z"/>
			<path fill="#515151" d="M269.911,100.777h38.825c3.521,0,6.525,0.448,9.013,1.344c2.483,0.896,4.492,2.166,6.023,3.813
				c1.527,1.646,2.644,3.626,3.337,5.938c0.69,2.312,1.04,4.91,1.04,7.799v28.687h-15.688v-27.646c0-2.772-0.52-4.707-1.56-5.805
				c-1.04-1.098-2.745-1.647-5.113-1.647h-16.986l-2.6-6.933h-0.607v42.028H269.91L269.911,100.777L269.911,100.777z"/>
			<path fill="#515151" d="M369.744,112.738h-13.866v35.618h-15.687v-35.617h-6.413l-4.16-11.267v-0.693h10.572v-5.72
				c0-2.83,0.289-5.157,0.863-6.977c0.577-1.82,1.545-3.278,2.903-4.377c1.356-1.097,3.147-1.862,5.373-2.295
				c2.224-0.435,4.983-0.65,8.276-0.65h7.02l4.248,10.658v0.781h-9.188c-1.504,0-2.517,0.332-3.033,0.996
				c-0.521,0.665-0.779,1.776-0.779,3.336v4.248h13.866L369.744,112.738L369.744,112.738z"/>
			<path fill="#515151" d="M414.289,120.709h-0.692v-6.5c0-0.635-0.29-0.953-0.863-0.953H393.58c-1.387,0-2.37,0.318-2.946,0.953
				c-0.577,0.637-0.866,1.733-0.866,3.293v30.854H374.08v-34.23c0-4.043,1.054-7.278,3.163-9.705
				c2.104-2.428,5.474-3.641,10.097-3.641h38.564c1.502,0,2.253,0.78,2.253,2.34v12.307L414.289,120.709z"/>
			<path fill="#515151" d="M433.875,112.563v-11.786h44.197c3.12,0,5.417,0.866,6.89,2.6c1.474,1.733,2.21,4.248,2.21,7.541v35.357
				c0,1.387-0.664,2.08-1.993,2.08h-41.511c-1.73,0-3.28-0.217-4.637-0.65c-1.358-0.434-2.516-1.17-3.467-2.209
				c-0.953-1.039-1.68-2.412-2.166-4.117c-0.492-1.701-0.737-3.824-0.737-6.367v-3.555c0-4.508,0.967-7.728,2.903-9.664
				c1.936-1.935,4.637-2.902,8.104-2.902h24.179l2.946,7.02h0.606v-9.619c0-1.328-0.274-2.281-0.823-2.86
				c-0.55-0.577-1.373-0.866-2.471-0.866L433.875,112.563L433.875,112.563z M470.446,136.568c0.635,0,0.953-0.346,0.953-1.039
				v-7.279h-20.626c-1.039,0-1.776,0.262-2.209,0.779c-0.438,0.521-0.65,1.301-0.65,2.34v2.08c0,0.982,0.217,1.748,0.65,2.297
				c0.433,0.551,1.17,0.822,2.209,0.822H470.446L470.446,136.568z"/>
			<path fill="#515151" d="M555.809,129.463c0,2.891-0.347,5.488-1.039,7.801c-0.69,2.313-1.817,4.289-3.381,5.938
				c-1.56,1.646-3.583,2.918-6.063,3.813c-2.484,0.896-5.489,1.344-9.016,1.344h-22.88c-3.521,0-6.515-0.445-8.97-1.344
				c-2.456-0.896-4.463-2.166-6.021-3.813c-1.563-1.646-2.688-3.625-3.383-5.938c-0.691-2.313-1.04-4.91-1.04-7.801v-9.793
				c0-2.83,0.35-5.416,1.04-7.756c0.692-2.34,1.819-4.334,3.383-5.979c1.561-1.646,3.563-2.917,6.021-3.813
				c2.455-0.895,5.444-1.343,8.97-1.343h22.88c3.522,0,6.527,0.448,9.016,1.343c2.479,0.896,4.507,2.168,6.063,3.813
				c1.563,1.646,2.688,3.64,3.381,5.979c0.693,2.339,1.039,4.926,1.039,7.756V129.463z M533.449,134.402
				c2.479,0,4.217-0.49,5.2-1.475c0.979-0.979,1.474-2.828,1.474-5.547v-6.674c0-2.887-0.507-4.853-1.518-5.893
				c-1.015-1.04-2.729-1.56-5.156-1.56h-17.072c-2.484,0-4.203,0.534-5.156,1.604s-1.43,3.021-1.43,5.851v6.673
				c0,2.718,0.477,4.565,1.43,5.548c0.953,0.981,2.672,1.475,5.156,1.475h17.072V134.402z"/>
			<path fill="#515151" d="M563.087,100.777h38.825c3.521,0,6.528,0.448,9.013,1.344c2.483,0.896,4.491,2.166,6.023,3.813
				c1.53,1.646,2.643,3.626,3.336,5.938c0.689,2.312,1.04,4.91,1.04,7.799v28.687h-15.688v-27.646c0-2.772-0.521-4.707-1.561-5.805
				c-1.04-1.098-2.744-1.647-5.112-1.647h-16.986l-2.6-6.933h-0.604v42.028h-15.688L563.087,100.777L563.087,100.777z"/>
		</g>
		<g>
			<path fill="#949494" d="M250.8,181.537h-0.17v7.74h-4.999V172.34c0-0.484,0.234-0.729,0.704-0.729h13.687
				c1.197,0,2.212,0.146,3.046,0.438c0.833,0.292,1.508,0.708,2.024,1.25c0.52,0.542,0.896,1.199,1.128,1.979
				c0.234,0.777,0.354,1.649,0.354,2.621v1.434c0,2.021-0.49,3.541-1.468,4.551c-0.979,1.014-2.595,1.52-4.842,1.52h-7.984
				L250.8,181.537z M250.946,176.027c-0.21,0-0.316,0.113-0.316,0.34v4.709h8.761c0.809,0,1.375-0.162,1.699-0.484
				c0.324-0.324,0.485-0.852,0.485-1.578v-0.873c0-0.824-0.162-1.384-0.485-1.675c-0.323-0.291-0.89-0.438-1.699-0.438H250.946
				L250.946,176.027z"/>
			<path fill="#949494" d="M285.382,183.988c0,0.809-0.097,1.535-0.291,2.184c-0.192,0.646-0.51,1.201-0.947,1.662
				s-1.003,0.816-1.697,1.066c-0.696,0.252-1.537,0.377-2.523,0.377h-6.407c-0.985,0-1.822-0.125-2.512-0.377
				c-0.688-0.25-1.25-0.605-1.687-1.066c-0.438-0.461-0.752-1.016-0.947-1.662c-0.194-0.646-0.291-1.375-0.291-2.184v-2.742
				c0-0.793,0.097-1.52,0.291-2.172c0.192-0.656,0.51-1.215,0.947-1.676s0.999-0.816,1.687-1.068
				c0.688-0.25,1.524-0.375,2.512-0.375h6.407c0.986,0,1.828,0.125,2.523,0.375c0.694,0.252,1.262,0.607,1.697,1.068
				c0.438,0.461,0.754,1.02,0.947,1.676c0.194,0.652,0.291,1.379,0.291,2.172V183.988z M279.121,185.371
				c0.695,0,1.181-0.139,1.456-0.412c0.273-0.273,0.412-0.793,0.412-1.555v-1.867c0-0.811-0.144-1.357-0.424-1.648
				c-0.283-0.291-0.767-0.438-1.444-0.438h-4.781c-0.696,0-1.177,0.148-1.444,0.447c-0.267,0.301-0.398,0.848-0.398,1.641v1.867
				c0,0.762,0.134,1.277,0.398,1.555c0.269,0.273,0.749,0.412,1.444,0.412L279.121,185.371L279.121,185.371z"/>
			<path fill="#949494" d="M295.962,175.955h4.999c0.485,0,0.785,0.219,0.898,0.652l2.257,9.416
				c0.016,0.146,0.111,0.221,0.291,0.221h0.219c0.178,0,0.283-0.072,0.315-0.221l1.626-10.068h4.174v0.191l-2.378,12.598
				c-0.065,0.354-0.324,0.531-0.777,0.531h-5.873c-0.243,0-0.425-0.049-0.546-0.146s-0.206-0.258-0.254-0.482l-2.233-9.295
				c-0.031-0.111-0.104-0.17-0.218-0.17h-0.194c-0.111,0-0.186,0.059-0.218,0.17l-2.039,9.295c-0.048,0.227-0.156,0.389-0.328,0.482
				c-0.17,0.1-0.366,0.146-0.595,0.146h-5.604c-0.261,0-0.431-0.043-0.512-0.133c-0.081-0.091-0.138-0.225-0.17-0.398l-2.645-12.598
				v-0.191h4.148l1.82,10.068c0.016,0.146,0.113,0.221,0.291,0.221h0.219c0.21,0,0.323-0.08,0.34-0.242l2.16-9.395
				C295.234,176.173,295.509,175.955,295.962,175.955z"/>
			<path fill="#949494" d="M316.226,181.682h-0.17v2.063c0,0.762,0.129,1.282,0.392,1.565c0.258,0.281,0.744,0.424,1.456,0.424
				h9.485v3.543h-10.313c-0.987,0-1.824-0.125-2.512-0.375c-0.688-0.252-1.25-0.606-1.688-1.067
				c-0.437-0.461-0.752-1.017-0.947-1.662c-0.191-0.646-0.291-1.375-0.291-2.184v-2.742c0-0.812,0.1-1.537,0.291-2.187
				c0.194-0.646,0.513-1.201,0.947-1.662c0.438-0.461,0.999-0.815,1.688-1.067c0.688-0.25,1.521-0.375,2.512-0.375h7.69
				c1.021,0,1.747,0.265,2.187,0.789c0.437,0.524,0.655,1.348,0.655,2.463v1.285c0,0.987-0.222,1.771-0.655,2.354
				c-0.438,0.582-1.165,0.871-2.187,0.871h-7.79L316.226,181.682z M316.056,181.025h6.698c0.501,0,0.752-0.258,0.752-0.775v-0.482
				c0-0.273-0.061-0.473-0.182-0.584c-0.122-0.109-0.313-0.17-0.57-0.17H317.9c-0.683,0-1.157,0.146-1.435,0.426
				c-0.272,0.283-0.413,0.789-0.413,1.52L316.056,181.025L316.056,181.025z"/>
			<path fill="#949494" d="M340.663,181.537h-0.194v-1.819c0-0.179-0.08-0.269-0.242-0.269h-5.36c-0.392,0-0.664,0.09-0.825,0.269
				c-0.162,0.179-0.243,0.483-0.243,0.923v8.643h-4.393v-9.59c0-1.131,0.295-2.035,0.886-2.717c0.59-0.682,1.533-1.021,2.827-1.021
				h10.799c0.42,0,0.631,0.22,0.631,0.653v3.445L340.663,181.537z"/>
			<path fill="#949494" d="M350.395,181.682h-0.17v2.063c0,0.762,0.129,1.282,0.392,1.565c0.258,0.281,0.743,0.424,1.456,0.424
				h9.484v3.543h-10.313c-0.987,0-1.824-0.125-2.512-0.375c-0.688-0.252-1.25-0.606-1.688-1.067
				c-0.437-0.461-0.752-1.017-0.946-1.662c-0.191-0.646-0.291-1.375-0.291-2.184v-2.742c0-0.812,0.1-1.537,0.291-2.187
				c0.193-0.646,0.512-1.201,0.946-1.662c0.438-0.461,0.999-0.815,1.688-1.067c0.688-0.25,1.521-0.375,2.512-0.375h7.689
				c1.021,0,1.748,0.265,2.188,0.789c0.436,0.524,0.654,1.348,0.654,2.463v1.285c0,0.987-0.223,1.771-0.654,2.354
				c-0.438,0.582-1.166,0.871-2.188,0.871h-7.787L350.395,181.682z M350.225,181.025h6.697c0.502,0,0.752-0.258,0.752-0.775v-0.482
				c0-0.273-0.061-0.473-0.182-0.584c-0.121-0.109-0.313-0.17-0.57-0.17h-4.854c-0.683,0-1.156,0.146-1.435,0.426
				c-0.272,0.283-0.413,0.789-0.413,1.52L350.225,181.025L350.225,181.025z"/>
			<path fill="#949494" d="M368.837,189.277c-0.987,0-1.823-0.125-2.512-0.377c-0.688-0.25-1.246-0.605-1.675-1.066
				c-0.433-0.461-0.74-1.016-0.938-1.661c-0.191-0.646-0.292-1.375-0.292-2.185v-2.742c0-0.793,0.101-1.52,0.292-2.172
				c0.193-0.656,0.505-1.215,0.938-1.676c0.429-0.461,0.983-0.816,1.675-1.068c0.688-0.25,1.521-0.375,2.512-0.375h6.504v-5.604
				h4.396v18.931H368.84L368.837,189.277L368.837,189.277z M373.836,185.371l1.313,3.422h0.191v-9.344h-5.679
				c-0.372,0-0.677,0.041-0.91,0.121s-0.421,0.223-0.558,0.426c-0.142,0.201-0.235,0.465-0.293,0.787
				c-0.06,0.324-0.084,0.729-0.084,1.215v1.406c0,0.762,0.138,1.277,0.412,1.555c0.271,0.273,0.752,0.412,1.433,0.412H373.836
				L373.836,185.371z"/>
			<path fill="#949494" d="M392.109,170.35h4.394v5.604h6.479c0.982,0,1.824,0.127,2.521,0.377c0.695,0.252,1.258,0.604,1.688,1.065
				c0.429,0.461,0.736,1.021,0.935,1.677c0.194,0.651,0.291,1.379,0.291,2.172v2.739c0,0.812-0.097,1.537-0.291,2.187
				c-0.194,0.646-0.506,1.201-0.935,1.662c-0.433,0.463-0.991,0.815-1.688,1.065c-0.697,0.252-1.537,0.377-2.521,0.377h-4.95
				l-1.335-3.396h-0.17v3.396h-4.418V170.35z M396.503,179.449v5.922h5.654c0.691,0,1.181-0.139,1.456-0.412
				c0.271-0.273,0.413-0.793,0.413-1.555v-1.867c0-0.793-0.142-1.34-0.413-1.641c-0.275-0.299-0.765-0.447-1.456-0.447H396.503
				L396.503,179.449z"/>
			<path fill="#949494" d="M421.863,187.701h0.17v-11.746h4.416v13.59c0,0.777-0.093,1.484-0.278,2.123
				c-0.187,0.641-0.49,1.188-0.91,1.641c-0.421,0.452-0.979,0.807-1.675,1.059c-0.696,0.25-1.553,0.375-2.572,0.375h-10.119v-3.715
				h9.439c0.631,0,1.071-0.143,1.322-0.426s0.377-0.729,0.377-1.348v-1.066h-6.286c-1.989,0-3.397-0.396-4.222-1.197
				c-0.825-0.805-1.238-2.021-1.238-3.652v-7.379h4.417v6.795c0,0.729,0.137,1.229,0.412,1.494c0.271,0.268,0.761,0.396,1.456,0.396
				h4.102L421.863,187.701z"/>
			<path fill="#949494" d="M444.02,179.061h-0.171v5.291c0,0.229,0.113,0.34,0.344,0.34h14.896v4.586h-19.535
				c-0.47,0-0.704-0.24-0.704-0.729v-16.21c0-0.485,0.234-0.729,0.704-0.729h18.979c0.481,0,0.728,0.244,0.728,0.729v4.586
				l-4.635,1.724h-0.194v-2.354c0-0.178-0.081-0.27-0.24-0.27H444.17c-0.13,0-0.214,0.037-0.255,0.108
				c-0.04,0.071-0.063,0.147-0.063,0.229v2.205h8.252v3.594h-6.916L444.02,179.061z"/>
			<path fill="#949494" d="M469.111,185.734c0.048,0.098,0.129,0.146,0.24,0.146h0.192c0.097,0,0.17-0.049,0.218-0.146l4.006-9.779
				h4.588v0.193l-5.729,12.668c-0.081,0.178-0.17,0.301-0.268,0.363c-0.101,0.063-0.242,0.098-0.438,0.098h-5.048
				c-0.21,0-0.363-0.031-0.461-0.098c-0.097-0.063-0.188-0.188-0.269-0.363l-5.729-12.668v-0.193h4.684L469.111,185.734z"/>
			<path fill="#949494" d="M483.234,181.682h-0.17v2.063c0,0.762,0.13,1.282,0.389,1.565c0.259,0.281,0.744,0.424,1.456,0.424h9.487
				v3.543h-10.313c-0.987,0-1.824-0.125-2.512-0.375c-0.688-0.252-1.25-0.606-1.688-1.067c-0.437-0.461-0.753-1.017-0.943-1.662
				c-0.193-0.646-0.295-1.375-0.295-2.184v-2.742c0-0.812,0.102-1.537,0.295-2.187c0.19-0.646,0.511-1.201,0.943-1.662
				c0.438-0.461,0.999-0.815,1.688-1.067c0.688-0.25,1.521-0.375,2.512-0.375h7.692c1.02,0,1.748,0.265,2.185,0.789
				c0.438,0.524,0.655,1.348,0.655,2.463v1.285c0,0.987-0.219,1.771-0.655,2.354c-0.437,0.582-1.165,0.871-2.185,0.871h-7.79
				L483.234,181.682z M483.064,181.025h6.694c0.501,0,0.752-0.258,0.752-0.775v-0.482c0-0.273-0.061-0.473-0.182-0.584
				c-0.121-0.109-0.313-0.17-0.57-0.17h-4.854c-0.683,0-1.157,0.146-1.436,0.426c-0.271,0.283-0.413,0.789-0.413,1.52v0.068
				L483.064,181.025L483.064,181.025z"/>
			<path fill="#949494" d="M507.672,181.537h-0.193v-1.819c0-0.179-0.078-0.269-0.239-0.269h-5.363c-0.389,0-0.664,0.09-0.825,0.269
				c-0.162,0.179-0.243,0.483-0.243,0.923v8.643h-4.392v-9.59c0-1.131,0.295-2.035,0.886-2.717c0.59-0.682,1.532-1.021,2.827-1.021
				h10.799c0.421,0,0.631,0.22,0.631,0.653v3.445L507.672,181.537z"/>
			<path fill="#949494" d="M517.403,181.682h-0.17v2.063c0,0.762,0.13,1.282,0.389,1.565c0.259,0.281,0.744,0.424,1.456,0.424h9.488
				v3.543h-10.313c-0.987,0-1.824-0.125-2.512-0.375c-0.688-0.252-1.25-0.606-1.688-1.067c-0.437-0.461-0.753-1.017-0.942-1.662
				c-0.194-0.646-0.292-1.375-0.292-2.184v-2.742c0-0.812,0.098-1.537,0.292-2.187c0.189-0.646,0.51-1.201,0.942-1.662
				c0.438-0.461,0.999-0.815,1.688-1.067c0.688-0.25,1.521-0.375,2.512-0.375h7.692c1.02,0,1.748,0.265,2.185,0.789
				c0.438,0.524,0.655,1.348,0.655,2.463v1.285c0,0.987-0.219,1.771-0.655,2.354c-0.437,0.582-1.165,0.871-2.185,0.871h-7.79
				L517.403,181.682z M517.233,181.025h6.694c0.501,0,0.752-0.258,0.752-0.775v-0.482c0-0.273-0.061-0.473-0.182-0.584
				c-0.121-0.109-0.313-0.17-0.57-0.17h-4.854c-0.684,0-1.157,0.146-1.436,0.426c-0.271,0.283-0.411,0.789-0.411,1.52
				L517.233,181.025L517.233,181.025z"/>
			<path fill="#949494" d="M530.435,185.539h10.896c0.259,0,0.437-0.055,0.534-0.156c0.097-0.105,0.146-0.279,0.146-0.521v-0.291
				c0-0.178-0.032-0.313-0.097-0.398c-0.065-0.09-0.194-0.145-0.389-0.154l-8.275-0.705c-1.02-0.08-1.771-0.396-2.257-0.945
				c-0.486-0.551-0.729-1.285-0.729-2.209v-1.066c0-0.971,0.271-1.734,0.805-2.293c0.529-0.561,1.403-0.838,2.616-0.838H545.7
				c0.4,0,0.604,0.203,0.604,0.605v2.982l-3.784,1.406h-0.171v-1.525c0-0.133-0.057-0.193-0.17-0.193h-6.938
				c-0.243,0-0.413,0.051-0.51,0.146c-0.101,0.099-0.146,0.261-0.146,0.484v0.364c0,0.228,0.036,0.371,0.109,0.438
				c0.068,0.063,0.206,0.111,0.396,0.146l8.472,0.824c0.563,0.049,1.032,0.153,1.405,0.313c0.372,0.159,0.671,0.377,0.897,0.646
				c0.226,0.268,0.384,0.596,0.474,0.981c0.089,0.389,0.133,0.842,0.133,1.356v0.994c0,1.065-0.274,1.896-0.837,2.478
				c-0.559,0.584-1.549,0.872-2.973,0.872h-12.231v-3.737h0.003L530.435,185.539L530.435,185.539z"/>
			<path fill="#949494" d="M558.804,179.305h-3.883v9.973h-4.393v-9.973h-1.747l-1.213-3.156v-0.191h2.96v-4.346h4.393v4.346h3.883
				V179.305z"/>
			<path fill="#949494" d="M560.43,189.277v-17.668h4.999v17.668H560.43z"/>
			<path fill="#949494" d="M591.808,189.277v-13.273c0-0.26-0.12-0.389-0.36-0.389h-0.271c-0.21,0-0.354,0.104-0.437,0.313
				l-4.829,12.789c-0.082,0.229-0.194,0.377-0.34,0.448c-0.146,0.071-0.353,0.108-0.607,0.108h-5.751
				c-0.275,0-0.479-0.037-0.619-0.108c-0.138-0.071-0.247-0.224-0.327-0.448l-4.806-12.789c-0.081-0.21-0.234-0.313-0.461-0.313
				h-0.242c-0.259,0-0.389,0.129-0.389,0.389v13.271h-4.688v-16.938c0-0.483,0.229-0.729,0.684-0.729h7.98
				c0.521,0,0.857,0.222,1.021,0.654l4.344,12.619c0.017,0.098,0.098,0.146,0.243,0.146h0.437c0.102,0,0.162-0.049,0.194-0.146
				l4.368-12.619c0.081-0.21,0.196-0.371,0.352-0.481c0.154-0.113,0.368-0.173,0.646-0.173h7.887c0.453,0,0.68,0.242,0.68,0.729
				v16.938L591.808,189.277L591.808,189.277z"/>
			<path fill="#949494" d="M614.619,177.727h-0.194v-1.939c0-0.192-0.097-0.291-0.291-0.291h-9.314c-0.343,0-0.574,0.07-0.704,0.219
				s-0.194,0.354-0.194,0.633v0.438c0,0.34,0.06,0.559,0.17,0.652c0.113,0.1,0.332,0.17,0.655,0.221l10.969,1.525
				c0.696,0.102,1.287,0.248,1.772,0.449c0.481,0.201,0.881,0.471,1.188,0.801c0.312,0.332,0.525,0.74,0.655,1.229
				c0.13,0.484,0.194,1.063,0.194,1.724v1.407c0,0.729-0.093,1.371-0.271,1.932c-0.179,0.559-0.47,1.025-0.874,1.406
				c-0.403,0.379-0.938,0.666-1.602,0.861c-0.664,0.191-1.48,0.287-2.451,0.287H598.6v-4.586h14.104
				c0.421,0,0.699-0.074,0.837-0.229c0.138-0.15,0.207-0.424,0.207-0.813v-0.482c0-0.311-0.053-0.521-0.158-0.646
				c-0.104-0.123-0.313-0.194-0.619-0.229l-10.58-1.334c-0.712-0.1-1.323-0.242-1.832-0.438c-0.51-0.192-0.927-0.453-1.25-0.774
				c-0.321-0.324-0.559-0.722-0.704-1.188c-0.145-0.47-0.218-1.026-0.218-1.675v-1.237c0-1.276,0.339-2.271,1.021-2.974
				c0.68-0.705,1.812-1.057,3.396-1.057h15.701c0.502,0,0.753,0.26,0.753,0.774v3.642L614.619,177.727z"/>
		</g>
		<path fill="#9B9B9B" d="M137.363,224.652c-8.467,0.91-17.022,0.74-25.455-0.517l-4.374-16.122
			c-9.267-2.13-18.116-5.795-26.175-10.846l-14.493,8.313c-7.927-5.879-14.941-12.896-20.819-20.813l8.314-14.493
			c-4.401-7.025-7.75-14.646-9.948-22.622c7.922,2.997,24.844,9.3,42.663,15.238c24.523,8.172,75.958-20.097,75.958-20.097
			L137.363,224.652z"/>
		<path fill="#FFFFFF" d="M122.129,86.139c-19.617,0.197-41.408,7.072-48.165,28.166c-0.314,0.98-0.586,1.973-0.814,2.973
			c-0.295,1.311-0.522,2.637-0.641,3.971c-0.039,0.435-0.062,0.867-0.078,1.302c-0.154,5.104,2.34,10.985,8.677,12.333
			c0,0,1.771,0.324,2.918,1.461c3.193,3.171-3.141,8.324,8.362,12.979c1.998,0.809,4.273,1.598,6.27,1.029
			c0.066-0.02,0.115-0.033,0.115-0.033l1.84,4.563l5.136,0.68c-0.208,1.414-1.088,3.334-1.088,3.334
			c1.798-1.75,4.282-4.381,4.282-4.381c1.771-1.74,3.754-1.469,7.263-1.104c2.654,0.271,5.019-2.094,8.194-2.809
			c7.706-1.738,16.209,3.572,21.686,1.906c4.197-1.271,6.802-5.455,7.994-8.805c0,0,2.627-4.104,7.583-2.77
			c5.384,1.396,10.876-2.525,13.44-7.1c6.843-12.19,2.302-28.784-9.845-37.527C153.071,87.537,136.214,86.072,122.129,86.139z
			 M123.221,76.367c20.975,0.121,43.326,4.024,56.326,19.572c9.833,11.762,12.11,29.126,4.817,42.303
			c-4.169,7.527-12.364,13.746-22.223,12.719c0,0-7.299,11.878-18.757,11.648c-1.472-0.027-2.941-0.228-4.374-0.551
			c-4.615-1.059-9.537-3.455-13.877-1.33c-3.197,1.604-6.58,2.773-10.335,2.357c0,0-3.801,3.816-7.14,6.729
			c-5.935,5.179-16.943,11.404-18.762,1.211c-0.725-4.047,1.728-7.815,3.634-11.226c0,0,0.883,0.222-2.181-0.762
			c-0.892-0.291-1.767-0.621-2.626-0.981c-0.869-0.377-1.719-0.791-2.546-1.238c-0.738-0.403-1.459-0.844-2.16-1.311
			c-4.361-2.908-8.032-7.279-8.388-12.476c-5.657-2.462-10.061-7.324-11.711-13.246c-4.313-15.49,5.088-31.965,17.626-41.381
			C92.312,79.568,108.221,76.356,123.221,76.367z"/>
		<path fill="#B2B2B2" d="M151.094,180.287l-13.811,44.097c-11.219,1.433-25.455-0.517-25.455-0.517l-4.374-16.123
			c-9.267-2.129-18.116-5.793-26.175-10.846l-1.612,0.926l0.104-2.848C79.77,194.979,121.821,207.771,151.094,180.287z"/>
		<g>
			<path fill="#606060" d="M122.454,86.005c-14.126,0.141-28.973,3.479-38.829,13.631c-5.432,5.596-8.977,12.805-9.758,20.255
				c-0.687,6.557,2.28,14.402,10.726,16.054c0,0,1.128,0.363,0.729,1.748c-0.944,3.449,2.055,6.931,4.827,8.787
				c3.707,2.479,8.755,4.177,12.349,3.024l0.134-0.045l0.355,0.86l0.995,0.097c-0.112,0.955-0.396,1.438-0.729,2.131
				c-1.67,3.459-4.422,6.582-5.209,10.272c-0.092,0.438-0.191,0.972,0.068,1.224c0.528,0.521,1.326-0.108,1.969-0.438
				c5.307-2.691,9.328-7.246,13.242-11.371c0,0,0.672-0.359,1.47-0.166c0.213,0.049,0.213,0.049,0.426,0.098
				c3.389,0.695,6.584-1.523,10.187-2.318c7.038-1.553,14.345,3.779,20.72,1.35c4.407-1.678,7.289-5.656,8.808-9.654
				c0,0,0.525-0.811,2.112-0.361c3.001,0.82,6.262,0.672,9.117-0.617c6.021-2.729,9.367-9.063,10.499-15.417
				c2.165-12.162-4.413-24.991-16.396-31.646C149.081,87.295,135.262,85.947,122.454,86.005z M123.459,84.16
				c15.613,0.088,32.031,2.32,43.515,11.562c3.885,3.126,7.048,7.017,9.128,11.356c4.382,9.141,4.214,20.254-1.594,28.676
				c-2.989,4.332-7.994,7.877-13.872,7.805c-1.404-0.021-2.797-0.238-4.146-0.604c-0.076,0.172-0.153,0.336-0.235,0.508
				c-0.495,1.033-1.062,2.041-1.709,2.996c-2.625,3.896-6.936,7.207-12.155,7.313c-1.257,0.021-2.516-0.121-3.739-0.396
				c-4.984-1.11-10.173-3.065-14.622-1.129c-1.561,0.683-3.027,1.61-4.704,1.914c-1.583,0.28-3.214,0.104-4.794-0.246
				c0,0-2.982,2.931-5.604,5.319c-2.533,2.31-5.108,4.695-8.199,6.146c-1.309,0.617-2.988,1.011-4.081-0.063
				c-1.542-1.521-0.298-4.221,0.983-6.688c1.241-2.381,2.783-4.66,3.887-7.021c-5.481,0.631-11.193-2.072-14.79-5.383
				c-2.419-2.229-4.163-5.395-3.43-8.656c0,0-3.211-1.021-5.261-2.449c-2.507-1.744-4.369-4.207-5.347-6.975
				c-2.233-6.311-0.501-13.216,2.178-19.102c3.856-8.473,11.103-15.477,20.276-19.608C103.891,85.486,113.731,84.154,123.459,84.16z
				"/>
			<path fill="#FFFFFF" d="M102.879,150.123c-6.522,2.311-21.759-5.094-18.56-13.473c0,0-13.984-2.102-11.607-18.199
				c2.089-14.142,16.164-40.332,69.492-32.093c53.33,8.238,38.726,63.479,13.923,55.229c0,0-5.089,14.322-18.332,10.378
				c-17.349-5.171-13.459,3.358-23.758,0.68c0,0-12.945,13.69-16.391,12.131C94.197,163.211,102.593,153.08,102.879,150.123"/>
			<path fill="#565656" d="M157.567,90.125l-3.916,17.158l9.135,14.963l15.101,3.494c0,0.854-0.246,1.521-0.548,2.211l-15.971-3.709
				l-10.115-16.563l4.125-18.064L157.567,90.125z"/>
			<polygon fill="#565656" points="141.163,97.269 154.924,100.461 155.428,98.252 142.57,95.269 136.02,84.842 133.48,84.719 			
				"/>
			<path fill="#565656" d="M95.75,134.475l3.722,6.063l-1.911,1.192l-3.231-5.262l-19.304-4.459
				c-0.529-0.781-1.322-1.854-1.724-2.849L95.75,134.475z"/>
			<polygon fill="#565656" points="86.383,123.194 76.105,130.127 77.354,132.012 87.632,125.08 			"/>
			<polygon fill="#565656" points="169.046,107.129 157.73,114.269 158.923,116.19 170.242,109.052 			"/>
			<path fill="#606060" d="M147.507,152.033l-4.519-1.053l-5.02-7.545l1.87-1.268l4.523,6.805l6.077,1.408
				C149.56,151.045,148.583,151.617,147.507,152.033z"/>
			<path fill="#565656" d="M113.091,94.387l-0.502,2.21l-11.063-2.568l-13.832,8.726l-7.408-1.717
				c0.538-0.654,1.104-1.297,1.703-1.933l5.303,1.231l13.83-8.728L113.091,94.387z"/>
			<polygon fill="#565656" points="98.759,107.059 106.334,108.815 106.838,106.607 100.16,105.057 94.955,96.826 93.058,98.045 			
				"/>
			<path fill="#565656" d="M167.223,107.526c-0.31,1.349,0.526,2.694,1.864,3.005c1.336,0.311,2.671-0.531,2.978-1.881
				c0.31-1.349-0.524-2.695-1.864-3.005C168.865,105.334,167.53,106.178,167.223,107.526"/>
			<path fill="#565656" d="M110.938,145.789c-0.307,1.352,0.527,2.693,1.864,3.006c1.34,0.311,2.674-0.533,2.981-1.881
				c0.308-1.354-0.526-2.694-1.864-3.006C112.579,143.6,111.245,144.441,110.938,145.789"/>
			<path fill="#606060" d="M136.481,142.238c-0.307,1.354,0.527,2.697,1.864,3.008c1.34,0.313,2.674-0.533,2.981-1.881
				c0.307-1.352-0.528-2.695-1.864-3.006C138.122,140.05,136.79,140.895,136.481,142.238"/>
			<path fill="#565656" d="M84.585,123.576c-0.308,1.35,0.527,2.693,1.864,3.004c1.34,0.311,2.675-0.533,2.981-1.879
				c0.308-1.352-0.527-2.697-1.864-3.006C86.227,121.382,84.892,122.224,84.585,123.576"/>
			<path fill="#565656" d="M104.613,107.254c-0.309,1.347,0.527,2.693,1.865,3.004c1.337,0.313,2.671-0.531,2.978-1.881
				c0.31-1.348-0.527-2.694-1.864-3.004C106.255,105.062,104.92,105.904,104.613,107.254"/>
			<path fill="#565656" d="M105.461,127.008c0.787,0.251,1.06,1.346,0.451,1.934c-2.899,2.5-5.931,4.834-8.896,7.252
				c-0.887,0.68-2.589-0.635-1.462-1.726c2.897-2.499,5.932-4.833,8.897-7.245C104.737,126.998,105.094,126.916,105.461,127.008z"/>
			<path fill="#565656" d="M116.548,129.539c4.689-0.148,6.014-1.646,5.888-5.672l-0.153-5.009c-0.125-4.03-1.539-5.436-6.228-5.286
				l-6.016,0.185c-4.666,0.147-5.989,1.641-5.865,5.668l0.156,5.014c0.122,4.027,1.536,5.433,6.201,5.288L116.548,129.539z"/>
			<path fill="#FFFFFF" d="M119.378,124.023c0.069,2.26-0.569,2.813-2.809,2.885l-6.193,0.191c-2.417,0.077-2.936-0.439-3.008-2.699
				l-0.156-5.105c-0.067-2.157,0.418-2.809,2.833-2.885l6.192-0.194c2.243-0.069,2.916,0.545,2.985,2.702L119.378,124.023z"/>
			<path fill="#565656" d="M145.792,109.289c0.641,0.084,1.094,0.588,1.129,1.224l0.142,16.228
				c-0.029,2.487-3.574,4.271-5.464,1.862c-2.614-3.647-4.875-7.56-7.642-11.09c-0.604-0.711-2.043-0.313-2.012,0.676
				c0.203,6.552,0.041,5.298,0.455,11.67c0.088,1.354-2.319,1.775-2.457,0.093l-0.458-11.591c-0.046-2.969,4.208-5.19,6.466-2.31
				c2.62,3.645,4.737,7.672,7.641,11.09c0.324,0.354,0.985,0.129,1.013-0.367c0.068-5.777-0.096-10.457-0.144-16.236
				C144.487,109.801,144.805,109.25,145.792,109.289z"/>
			<path fill="#565656" d="M139.492,95.377c-0.309,1.351,0.525,2.692,1.863,3.006c1.34,0.31,2.675-0.531,2.981-1.879
				c0.307-1.353-0.527-2.697-1.864-3.006C141.133,93.188,139.801,94.028,139.492,95.377"/>
			<path fill="#565656" d="M132.742,137.473c0.002,0.523-0.268,0.988-0.736,1.234l-17.65,8.459l-1.109-2.355l16.878-8.084
				l-0.191-8.838l2.305-0.238C132.413,131.762,132.566,133.361,132.742,137.473z"/>
			<polygon fill="#565656" points="152.833,106.617 145.014,109.461 145.817,111.604 153.902,108.666 			"/>
		</g>
	</g>
	<path fill="#FFFFFF" d="M93.588,81.705c10.374-8.951,38.633-19.018,38.633-19.018l-1.257-3.332l11.29-4.672h-10.599l0.566-1.557
		l14.24,0.123l1.708-0.635l0.863,1.596l3.25-1.297l4.088,9.508l-3.694,1.508l0.631,1.577l-17.06,6.317l-1.292-2.984
		c0,0-21.124,6.006-41.368,19.16"/>
</g>
<rect x="15" y="-7.316" fill="none" width="549" height="258"/>
<circle fill="#FFFFFF" stroke="#606060" stroke-miterlimit="10" cx="634.669" cy="79.353" r="11.669"/>
<g>
	<path fill="#606060" d="M629.665,86.153V73.269h5.713c1.148,0,2.021,0.116,2.619,0.347c0.598,0.231,1.075,0.641,1.433,1.227
		c0.358,0.586,0.536,1.232,0.536,1.941c0,0.914-0.296,1.686-0.888,2.313c-0.592,0.627-1.506,1.025-2.742,1.195
		c0.451,0.217,0.794,0.431,1.028,0.642c0.498,0.457,0.97,1.028,1.415,1.714l2.237,3.507h-2.145l-1.705-2.681
		c-0.498-0.773-0.908-1.365-1.229-1.775c-0.32-0.41-0.608-0.697-0.864-0.861c-0.254-0.163-0.518-0.277-0.777-0.342
		c-0.193-0.041-0.51-0.063-0.949-0.063h-1.978v5.723L629.665,86.153L629.665,86.153z M631.37,78.955h3.665
		c0.779,0,1.389-0.08,1.828-0.241c0.438-0.161,0.771-0.419,1.002-0.773c0.229-0.354,0.343-0.739,0.343-1.155
		c0-0.609-0.222-1.11-0.663-1.504c-0.443-0.393-1.142-0.589-2.097-0.589h-4.078V78.955z"/>
</g>
</svg>
