<?xml version="1.0" encoding="utf-8"?>
<!-- Generator: Adobe Illustrator 16.0.0, SVG Export Plug-In . SVG Version: 6.00 Build 0)  -->
<!DOCTYPE svg PUBLIC "-//W3C//DTD SVG 1.1//EN" "http://www.w3.org/Graphics/SVG/1.1/DTD/svg11.dtd">
<svg version="1.1" id="Layer_1" xmlns="http://www.w3.org/2000/svg" xmlns:xlink="http://www.w3.org/1999/xlink" x="0px" y="0px"
	 width="678px" height="163px" viewBox="0 0 678 163" enable-background="new 0 0 678 163" xml:space="preserve">
<path display="none" fill="#97A6BA" d="M116.914,473.307c2.18,7.144-49.745,33.047-49.745,33.047l3.261,5.951l-15.174,8.063
	l14.92-1.72l-0.505,2.628l-20.046,2.308l-2.291,1.257l-1.031-1.905l-4.016,1.709l-6.827-12.987l3.702-1.931l-1.144-2.111
	l22.991-11.659l3.31,5.739c0,0,50.351-23.924,54.118-35.432"/>
<path display="none" fill="#FFFFFF" d="M149.962,223.068C135.688,236.227,96.134,251.8,96.134,251.8l1.925,4.325l-15.782,6.811
	l15.01-0.494l-0.718,2.563L76.4,265.663l-2.386,1.063l-1.295-2.181l-4.541,2.013l-6.233-13.269l5.161-2.304l-0.967-2.199
	l23.867-9.741l1.969,4.168c0,0,29.636-9.487,57.694-29.063"/>
<g>
	<g>
		<g>
			<path fill="#515151" d="M29.083,53.396v-9.32h11.635v9.32H29.083z M29.083,94.215V58.926h11.635v35.289H29.083z"/>
			<path fill="#515151" d="M46.696,58.926h28.797c2.613,0,4.842,0.332,6.685,0.995c1.842,0.665,3.332,1.607,4.467,2.829
				c1.135,1.221,1.961,2.689,2.475,4.403c0.514,1.714,0.771,3.643,0.771,5.784v21.277H78.255V73.71c0-2.057-0.386-3.491-1.157-4.307
				c-0.771-0.813-2.036-1.222-3.792-1.222h-12.6l-1.928-5.143h-0.45v31.176H46.693L46.696,58.926L46.696,58.926z"/>
			<path fill="#515151" d="M120.745,67.796H110.46v26.419H98.825V67.796h-4.757l-3.085-8.356v-0.514h7.842v-4.242
				c0-2.1,0.214-3.825,0.644-5.174c0.428-1.351,1.146-2.433,2.152-3.248c1.006-0.813,2.335-1.382,3.985-1.703
				c1.648-0.32,3.696-0.481,6.139-0.481h5.207l3.149,7.907v0.578h-6.813c-1.115,0-1.864,0.248-2.25,0.74
				c-0.386,0.492-0.578,1.316-0.578,2.475v3.15h10.285V67.796L120.745,67.796z"/>
			<path fill="#515151" d="M153.785,73.71h-0.514v-4.821c0-0.471-0.216-0.707-0.645-0.707H138.42c-1.027,0-1.758,0.236-2.186,0.707
				c-0.429,0.473-0.644,1.287-0.644,2.442v22.884h-11.635V68.824c0-2.999,0.781-5.398,2.347-7.199c1.563-1.8,4.06-2.699,7.488-2.699
				h28.604c1.114,0,1.672,0.577,1.672,1.734v9.128L153.785,73.71z"/>
			<path fill="#515151" d="M168.312,67.667v-8.741h32.783c2.313,0,4.018,0.643,5.109,1.928c1.092,1.285,1.639,3.149,1.639,5.592
				v26.226c0,1.028-0.492,1.543-1.479,1.543h-30.79c-1.285,0-2.433-0.16-3.438-0.48c-1.009-0.32-1.864-0.865-2.571-1.64
				c-0.707-0.771-1.244-1.788-1.607-3.054s-0.546-2.839-0.546-4.727V81.68c0-3.343,0.717-5.731,2.153-7.168
				c1.435-1.436,3.438-2.152,6.01-2.152h17.936l2.188,5.207h0.449v-7.135c0-0.985-0.203-1.692-0.61-2.121
				c-0.407-0.428-1.019-0.644-1.832-0.644H168.312z M195.438,85.473c0.472,0,0.707-0.256,0.707-0.771v-5.399h-15.298
				c-0.771,0-1.318,0.193-1.641,0.58c-0.322,0.385-0.481,0.963-0.481,1.734v1.543c0,0.729,0.161,1.297,0.481,1.704
				c0.321,0.407,0.868,0.61,1.641,0.61L195.438,85.473L195.438,85.473z"/>
			<path fill="#515151" d="M258.753,80.202c0,2.144-0.258,4.071-0.771,5.784c-0.514,1.716-1.351,3.184-2.507,4.404
				c-1.157,1.221-2.657,2.164-4.499,2.826c-1.845,0.666-4.072,0.996-6.687,0.996h-16.97c-2.614,0-4.832-0.33-6.653-0.996
				c-1.821-0.662-3.311-1.605-4.468-2.826c-1.156-1.224-1.992-2.688-2.507-4.404c-0.514-1.711-0.771-3.643-0.771-5.784v-7.265
				c0-2.098,0.259-4.018,0.771-5.752c0.515-1.735,1.351-3.215,2.507-4.436c1.157-1.222,2.646-2.164,4.468-2.829
				c1.821-0.663,4.039-0.995,6.653-0.995h16.97c2.613,0,4.842,0.332,6.687,0.995c1.842,0.665,3.342,1.607,4.499,2.829
				c1.156,1.221,1.993,2.7,2.507,4.436c0.516,1.734,0.771,3.654,0.771,5.752V80.202L258.753,80.202z M242.168,83.866
				c1.843,0,3.127-0.364,3.856-1.093c0.729-0.729,1.093-2.102,1.093-4.114v-4.95c0-2.142-0.375-3.6-1.125-4.371
				s-2.023-1.156-3.824-1.156h-12.663c-1.844,0-3.117,0.396-3.824,1.188s-1.062,2.24-1.062,4.339v4.95
				c0,2.015,0.354,3.386,1.062,4.114c0.707,0.729,1.98,1.093,3.824,1.093H242.168z"/>
			<path fill="#515151" d="M264.152,58.926h28.797c2.614,0,4.844,0.332,6.688,0.995c1.842,0.665,3.33,1.607,4.468,2.829
				c1.135,1.221,1.96,2.689,2.475,4.403c0.515,1.714,0.771,3.643,0.771,5.784v21.277h-11.636V73.71c0-2.057-0.387-3.491-1.156-4.307
				c-0.771-0.813-2.036-1.222-3.793-1.222h-12.6l-1.929-5.143h-0.45v31.176h-11.635V58.926L264.152,58.926z"/>
		</g>
		<g>
			<path fill="#989898" d="M356.563,66.301h-0.514v-5.144c0-0.515-0.259-0.771-0.771-0.771h-24.684c-0.9,0-1.521,0.192-1.864,0.578
				c-0.344,0.387-0.516,0.943-0.516,1.672v1.156c0,0.9,0.149,1.479,0.45,1.735c0.3,0.257,0.878,0.45,1.734,0.579l29.055,4.049
				c1.843,0.257,3.406,0.654,4.691,1.188c1.287,0.535,2.336,1.242,3.148,2.121s1.395,1.959,1.732,3.245
				c0.343,1.286,0.517,2.808,0.517,4.564v3.729c0,1.93-0.233,3.632-0.707,5.109c-0.474,1.479-1.242,2.723-2.313,3.729
				c-1.071,1.009-2.485,1.771-4.244,2.281c-1.756,0.517-3.92,0.771-6.49,0.771h-41.651V84.747h37.346
				c1.113,0,1.854-0.203,2.219-0.61c0.361-0.408,0.546-1.125,0.546-2.153v-1.286c0-0.813-0.14-1.383-0.417-1.703
				c-0.275-0.322-0.824-0.523-1.641-0.611l-28.025-3.535c-1.886-0.256-3.503-0.643-4.853-1.156
				c-1.351-0.514-2.454-1.199-3.313-2.057c-0.855-0.856-1.479-1.906-1.862-3.149c-0.388-1.243-0.578-2.722-0.578-4.437v-3.277
				c0-3.385,0.897-6.01,2.698-7.875c1.801-1.863,4.8-2.795,9-2.795h41.592c1.325,0,1.99,0.686,1.99,2.057v9.643L356.563,66.301z"/>
			<path fill="#989898" d="M386.646,76.777h-0.451v5.464c0,2.015,0.344,3.396,1.029,4.146c0.685,0.75,1.971,1.125,3.854,1.125
				h25.134v9.385h-27.315c-2.614,0-4.832-0.328-6.653-0.994c-1.821-0.663-3.312-1.605-4.468-2.827
				c-1.156-1.224-1.992-2.688-2.508-4.403c-0.516-1.713-0.771-3.643-0.771-5.785v-7.264c0-2.143,0.258-4.07,0.771-5.785
				c0.516-1.713,1.352-3.182,2.508-4.402c1.156-1.223,2.646-2.164,4.468-2.83c1.821-0.664,4.039-0.996,6.653-0.996h20.377
				c2.697,0,4.628,0.697,5.784,2.09c1.154,1.393,1.733,3.566,1.733,6.523v3.407c0,2.615-0.579,4.692-1.733,6.235
				c-1.156,1.542-3.087,2.313-5.784,2.313h-20.635L386.646,76.777z M386.195,75.042h17.742c1.326,0,1.991-0.685,1.991-2.057v-1.286
				c0-0.729-0.159-1.243-0.48-1.543c-0.32-0.299-0.824-0.45-1.511-0.45h-12.854c-1.801,0-3.063,0.375-3.793,1.125
				s-1.094,2.089-1.094,4.019L386.195,75.042L386.195,75.042z"/>
			<path fill="#989898" d="M453.175,76.391h-0.577V71.57c0-0.472-0.191-0.707-0.579-0.707h-14.271c-1.845,0-3.118,0.396-3.825,1.188
				s-1.062,2.24-1.062,4.34v4.949c0,2.016,0.354,3.387,1.062,4.114s1.98,1.093,3.825,1.093h25.133v10.35h-27.316
				c-2.613,0-4.831-0.33-6.652-0.996c-1.821-0.664-3.313-1.604-4.468-2.826c-1.156-1.225-1.992-2.688-2.509-4.403
				c-0.515-1.713-0.771-3.644-0.771-5.784V75.62c0-2.099,0.258-4.019,0.771-5.753c0.517-1.734,1.354-3.214,2.509-4.436
				c1.155-1.222,2.646-2.164,4.468-2.828s4.039-0.996,6.653-0.996h26.16c1.155,0,1.734,0.578,1.734,1.734v9.129L453.175,76.391z"/>
			<path fill="#989898" d="M468.604,61.607h11.636v19.734c0,1.972,0.405,3.332,1.222,4.082c0.813,0.75,2.207,1.125,4.18,1.125
				h10.604c2.059,0,3.492-0.396,4.309-1.188c0.813-0.791,1.223-2.131,1.223-4.019V61.607h11.635v21.275
				c0,2.146-0.257,4.072-0.771,5.785c-0.516,1.715-1.341,3.183-2.477,4.403c-1.136,1.222-2.625,2.164-4.467,2.828
				c-1.846,0.664-4.095,0.996-6.75,0.996h-16.007c-2.614,0-4.832-0.332-6.652-0.996c-1.821-0.664-3.301-1.606-4.438-2.828
				c-1.137-1.223-1.961-2.688-2.476-4.403c-0.517-1.713-0.771-3.644-0.771-5.785L468.604,61.607L468.604,61.607z"/>
			<path fill="#989898" d="M532.625,74.334v22.563h-13.241V52.029c0-1.286,0.603-1.928,1.801-1.928h36.574
				c2.914,0,5.379,0.344,7.396,1.027c2.014,0.686,3.643,1.684,4.885,2.989c1.242,1.308,2.145,2.882,2.7,4.726
				c0.557,1.842,0.835,3.92,0.835,6.234v3.343c0,2.272-0.277,4.308-0.835,6.106c-0.56,1.8-1.445,3.333-2.668,4.596
				c-1.224,1.266-2.797,2.24-4.727,2.926c-1.931,0.687-4.285,1.027-7.068,1.027h-1.354c-0.644,0-1.211,0-1.702,0
				c-0.493,0-0.978-0.021-1.444-0.064v0.45c0.558,0.516,1.112,1.083,1.671,1.704c0.558,0.622,1.094,1.253,1.605,1.896l7.456,9.318
				v0.516h-14.912l-16.521-22.563L532.625,74.334L532.625,74.334z M533.525,61.801c-0.604,0-0.899,0.363-0.899,1.092v10.221h22.756
				c1.757,0,3.011-0.342,3.761-1.028c0.749-0.685,1.125-1.993,1.125-3.921v-1.607c0-1.799-0.376-3.041-1.125-3.728
				c-0.75-0.685-2.004-1.028-3.761-1.028L533.525,61.801L533.525,61.801z"/>
			<path fill="#989898" d="M591.12,96.896h-15.299V96.38l23.462-44.738c0.299-0.6,0.601-1.006,0.898-1.222
				c0.301-0.214,0.813-0.321,1.542-0.321h16.137c0.729,0,1.253,0.107,1.572,0.321c0.321,0.216,0.652,0.622,0.997,1.222
				l23.271,44.738v0.517h-40.047l-3.855-10.155v-1.285h13.111c1.371,0,2.563,0,3.567,0c1.006,0,1.896,0.012,2.666,0.03
				c0.771,0.021,1.457,0.056,2.06,0.098c0.602,0.043,1.179,0.086,1.734,0.129l0.19-0.449c-0.258-0.472-0.522-0.933-0.805-1.383
				c-0.277-0.449-0.589-0.997-0.934-1.639c-0.345-0.644-0.75-1.414-1.224-2.313c-0.472-0.9-1.05-2.035-1.733-3.408l-7.394-14.783
				c-0.172-0.299-0.473-0.45-0.898-0.45h-0.771c-0.386,0-0.665,0.151-0.836,0.45L591.12,96.896z"/>
		</g>
		<g>
			<path fill="#949494" d="M175.577,129.535h-0.212v9.784h-6.32v-21.405c0-0.615,0.297-0.921,0.891-0.921h17.297
				c1.512,0,2.794,0.184,3.848,0.554c1.053,0.367,1.906,0.893,2.561,1.576c0.654,0.685,1.129,1.519,1.426,2.499
				c0.297,0.981,0.445,2.085,0.445,3.311v1.807c0,2.556-0.618,4.473-1.856,5.75c-1.236,1.278-3.274,1.916-6.118,1.916h-10.089
				L175.577,129.535z M175.759,122.572c-0.265,0-0.396,0.143-0.396,0.429v5.953h11.068c1.024,0,1.737-0.204,2.146-0.615
				c0.409-0.407,0.615-1.072,0.615-1.991v-1.105c0-1.041-0.206-1.749-0.615-2.117c-0.409-0.368-1.122-0.552-2.146-0.552
				L175.759,122.572L175.759,122.572z"/>
			<path fill="#949494" d="M219.277,132.632c0,1.025-0.123,1.942-0.368,2.762c-0.247,0.82-0.644,1.519-1.197,2.101
				c-0.553,0.582-1.268,1.031-2.147,1.347c-0.88,0.316-1.941,0.478-3.188,0.478h-8.097c-1.249,0-2.305-0.16-3.172-0.478
				c-0.871-0.315-1.581-0.765-2.133-1.347s-0.949-1.28-1.196-2.101c-0.247-0.817-0.368-1.736-0.368-2.762v-3.466
				c0-1.001,0.121-1.916,0.368-2.745c0.247-0.828,0.644-1.533,1.196-2.116c0.552-0.584,1.262-1.032,2.133-1.348
				c0.869-0.317,1.925-0.478,3.172-0.478h8.097c1.247,0,2.309,0.159,3.188,0.478c0.88,0.315,1.594,0.765,2.147,1.348
				c0.553,0.581,0.95,1.288,1.197,2.116c0.246,0.829,0.368,1.744,0.368,2.745V132.632z M211.365,134.38
				c0.88,0,1.491-0.173,1.841-0.523c0.346-0.346,0.523-1.001,0.523-1.963v-2.358c0-1.024-0.18-1.719-0.536-2.087
				c-0.357-0.367-0.967-0.552-1.825-0.552h-6.042c-0.879,0-1.486,0.191-1.824,0.571c-0.339,0.381-0.507,1.07-0.507,2.073v2.357
				c0,0.961,0.168,1.619,0.507,1.962c0.338,0.349,0.945,0.526,1.824,0.526h6.04L211.365,134.38L211.365,134.38z"/>
			<path fill="#949494" d="M233.261,122.479h6.319c0.614,0,0.989,0.276,1.135,0.828l2.852,11.899
				c0.022,0.185,0.143,0.276,0.368,0.276h0.277c0.224,0,0.356-0.092,0.396-0.276l2.056-12.728h5.273v0.247l-3.004,15.914
				c-0.083,0.451-0.411,0.676-0.981,0.676h-7.42c-0.307,0-0.536-0.063-0.691-0.184c-0.155-0.123-0.259-0.329-0.322-0.616
				l-2.82-11.747c-0.042-0.144-0.134-0.215-0.276-0.215h-0.248c-0.144,0-0.236,0.071-0.276,0.215l-2.577,11.747
				c-0.063,0.287-0.202,0.489-0.414,0.616c-0.214,0.12-0.467,0.184-0.753,0.184h-7.086c-0.327,0-0.541-0.058-0.644-0.169
				c-0.104-0.113-0.173-0.28-0.213-0.507l-3.344-15.914v-0.247h5.246l2.3,12.728c0.022,0.185,0.144,0.276,0.369,0.276h0.276
				c0.264,0,0.408-0.103,0.431-0.307l2.728-11.869C232.341,122.756,232.688,122.479,233.261,122.479z"/>
			<path fill="#949494" d="M259.359,129.719h-0.214v2.607c0,0.96,0.163,1.62,0.491,1.979c0.327,0.36,0.938,0.536,1.841,0.536h11.989
				v4.478h-13.031c-1.25,0-2.306-0.16-3.174-0.478c-0.869-0.316-1.577-0.766-2.13-1.346c-0.552-0.583-0.949-1.282-1.197-2.102
				c-0.246-0.817-0.368-1.737-0.368-2.762v-3.464c0-1.023,0.122-1.94,0.368-2.762c0.248-0.817,0.645-1.52,1.197-2.101
				c0.554-0.583,1.261-1.03,2.13-1.349c0.869-0.317,1.927-0.477,3.174-0.477h9.72c1.288,0,2.209,0.334,2.761,0.995
				c0.553,0.663,0.829,1.705,0.829,3.114v1.624c0,1.249-0.276,2.239-0.829,2.975c-0.552,0.739-1.474,1.106-2.761,1.106h-9.844
				L259.359,129.719z M259.145,128.891h8.464c0.634,0,0.952-0.327,0.952-0.981v-0.613c0-0.348-0.077-0.595-0.231-0.738
				c-0.154-0.142-0.393-0.213-0.721-0.213h-6.133c-0.857,0-1.461,0.181-1.81,0.536c-0.345,0.357-0.521,0.996-0.521,1.916V128.891
				L259.145,128.891z"/>
			<path fill="#949494" d="M290.239,129.535h-0.246v-2.303c0-0.224-0.104-0.336-0.304-0.336h-6.778c-0.488,0-0.84,0.112-1.042,0.336
				c-0.206,0.227-0.305,0.616-0.305,1.166v10.918h-5.55v-12.115c0-1.433,0.374-2.578,1.119-3.438
				c0.747-0.858,1.937-1.288,3.572-1.288h13.647c0.532,0,0.799,0.275,0.799,0.829v4.355L290.239,129.535z"/>
			<path fill="#949494" d="M302.752,129.719h-0.213v2.607c0,0.96,0.162,1.62,0.489,1.979c0.328,0.36,0.94,0.536,1.841,0.536h11.99
				v4.478h-13.031c-1.249,0-2.305-0.16-3.173-0.478c-0.87-0.316-1.579-0.766-2.13-1.346c-0.552-0.583-0.949-1.282-1.197-2.102
				c-0.245-0.817-0.368-1.737-0.368-2.762v-3.464c0-1.023,0.123-1.94,0.368-2.762c0.248-0.817,0.645-1.52,1.197-2.101
				c0.551-0.583,1.26-1.03,2.13-1.349c0.868-0.317,1.927-0.477,3.173-0.477h9.721c1.29,0,2.209,0.334,2.76,0.995
				c0.553,0.663,0.829,1.705,0.829,3.114v1.624c0,1.249-0.276,2.239-0.829,2.975c-0.553,0.739-1.473,1.106-2.76,1.106h-9.844
				L302.752,129.719z M302.537,128.891h8.465c0.633,0,0.95-0.327,0.95-0.981v-0.613c0-0.348-0.076-0.595-0.23-0.738
				c-0.155-0.142-0.394-0.213-0.719-0.213h-6.137c-0.857,0-1.461,0.181-1.807,0.536c-0.348,0.357-0.524,0.996-0.524,1.916
				L302.537,128.891L302.537,128.891z"/>
			<path fill="#949494" d="M326.058,139.316c-1.247,0-2.303-0.16-3.171-0.477c-0.87-0.318-1.575-0.766-2.119-1.349
				c-0.539-0.581-0.934-1.281-1.181-2.1c-0.243-0.817-0.367-1.736-0.367-2.762v-3.466c0-1.001,0.124-1.916,0.367-2.745
				c0.249-0.828,0.642-1.531,1.181-2.119c0.542-0.58,1.249-1.029,2.119-1.345c0.869-0.317,1.928-0.479,3.171-0.479h8.22v-7.083
				h5.549v23.92h-13.769V139.316L326.058,139.316z M332.377,134.38l1.656,4.323h0.248v-11.807h-7.177
				c-0.471,0-0.853,0.052-1.152,0.156c-0.298,0.103-0.529,0.281-0.707,0.535c-0.173,0.254-0.298,0.588-0.368,0.997
				c-0.069,0.406-0.109,0.919-0.109,1.53v1.778c0,0.962,0.173,1.617,0.524,1.963c0.347,0.348,0.951,0.523,1.81,0.523H332.377z"/>
			<path fill="#949494" d="M355.468,115.396h5.55v7.085h8.189c1.249,0,2.309,0.158,3.188,0.476c0.88,0.316,1.59,0.766,2.133,1.35
				c0.538,0.581,0.934,1.287,1.178,2.115c0.247,0.83,0.367,1.743,0.367,2.747v3.465c0,1.026-0.12,1.94-0.367,2.762
				c-0.247,0.818-0.64,1.518-1.178,2.101c-0.543,0.58-1.256,1.029-2.133,1.349c-0.879,0.314-1.938,0.477-3.188,0.477h-6.257
				l-1.686-4.294h-0.214v4.294h-5.583V115.396L355.468,115.396z M361.018,126.896v7.483h7.143c0.882,0,1.491-0.173,1.842-0.525
				c0.347-0.344,0.523-1.001,0.523-1.963v-2.358c0-1.002-0.173-1.693-0.523-2.072c-0.348-0.38-0.96-0.57-1.842-0.57h-7.143V126.896z
				"/>
			<path fill="#949494" d="M393.065,137.322h0.213v-14.843h5.583v17.174c0,0.981-0.115,1.878-0.352,2.684
				c-0.234,0.807-0.615,1.497-1.149,2.07c-0.53,0.572-1.239,1.018-2.118,1.335c-0.882,0.317-1.964,0.479-3.252,0.479h-12.789v-4.691
				h11.933c0.798,0,1.351-0.178,1.668-0.533c0.316-0.357,0.477-0.928,0.477-1.706v-1.346h-7.942c-2.516,0-4.294-0.508-5.335-1.523
				c-1.042-1.012-1.565-2.548-1.565-4.615v-9.322h5.584v8.587c0,0.92,0.171,1.549,0.521,1.889c0.349,0.339,0.961,0.505,1.841,0.505
				h5.181L393.065,137.322z"/>
			<path fill="#949494" d="M421.063,126.405h-0.212v6.684c0,0.288,0.143,0.431,0.431,0.431h18.827v5.797h-24.687
				c-0.592,0-0.891-0.304-0.891-0.919v-20.485c0-0.613,0.298-0.921,0.891-0.921h23.98c0.617,0,0.922,0.308,0.922,0.921v5.795
				l-5.858,2.178h-0.247v-2.977c0-0.223-0.104-0.339-0.306-0.339h-12.665c-0.161,0-0.271,0.049-0.322,0.14
				c-0.051,0.093-0.074,0.19-0.074,0.292v2.793h10.428v4.541h-8.739L421.063,126.405z"/>
			<path fill="#949494" d="M452.773,134.84c0.064,0.119,0.162,0.184,0.306,0.184h0.247c0.12,0,0.212-0.064,0.276-0.184l5.061-12.358
				h5.795v0.246l-7.235,16.008c-0.104,0.225-0.214,0.379-0.339,0.46c-0.123,0.08-0.305,0.121-0.553,0.121h-6.378
				c-0.264,0-0.46-0.041-0.581-0.121c-0.122-0.081-0.236-0.235-0.339-0.46l-7.236-16.008v-0.246h5.918L452.773,134.84z"/>
			<path fill="#949494" d="M471.817,129.719h-0.213v2.607c0,0.96,0.162,1.62,0.489,1.979c0.328,0.36,0.939,0.536,1.842,0.536h11.99
				v4.478h-13.032c-1.248,0-2.304-0.16-3.172-0.478c-0.871-0.316-1.579-0.766-2.131-1.346c-0.553-0.583-0.95-1.282-1.195-2.102
				c-0.248-0.817-0.371-1.737-0.371-2.762v-3.464c0-1.023,0.123-1.94,0.371-2.762c0.245-0.817,0.643-1.52,1.195-2.101
				c0.553-0.583,1.26-1.03,2.131-1.349c0.869-0.317,1.927-0.477,3.172-0.477h9.722c1.29,0,2.21,0.334,2.761,0.995
				c0.553,0.663,0.828,1.705,0.828,3.114v1.624c0,1.249-0.275,2.239-0.828,2.975c-0.553,0.739-1.473,1.106-2.761,1.106h-9.843
				L471.817,129.719z M471.603,128.891h8.465c0.632,0,0.948-0.327,0.948-0.981v-0.613c0-0.348-0.075-0.595-0.229-0.738
				c-0.154-0.142-0.393-0.213-0.719-0.213h-6.136c-0.859,0-1.462,0.181-1.809,0.536c-0.346,0.357-0.522,0.996-0.522,1.916
				L471.603,128.891L471.603,128.891z"/>
			<path fill="#949494" d="M502.699,129.535h-0.247v-2.303c0-0.224-0.103-0.336-0.305-0.336h-6.777c-0.49,0-0.841,0.112-1.042,0.336
				c-0.207,0.227-0.306,0.616-0.306,1.166v10.918h-5.549v-12.115c0-1.433,0.373-2.578,1.118-3.438
				c0.747-0.858,1.939-1.288,3.575-1.288h13.647c0.53,0,0.799,0.275,0.799,0.829v4.355L502.699,129.535z"/>
			<path fill="#949494" d="M515.211,129.719h-0.213v2.607c0,0.96,0.161,1.62,0.489,1.979c0.328,0.36,0.938,0.536,1.842,0.536h11.989
				v4.478h-13.032c-1.247,0-2.304-0.16-3.172-0.478c-0.87-0.316-1.578-0.766-2.131-1.346c-0.551-0.583-0.95-1.282-1.196-2.102
				c-0.246-0.817-0.368-1.737-0.368-2.762v-3.464c0-1.023,0.122-1.94,0.368-2.762c0.246-0.817,0.646-1.52,1.196-2.101
				c0.553-0.583,1.261-1.03,2.131-1.349c0.869-0.317,1.928-0.477,3.172-0.477h9.722c1.289,0,2.211,0.334,2.76,0.995
				c0.554,0.663,0.83,1.705,0.83,3.114v1.624c0,1.249-0.277,2.239-0.83,2.975c-0.551,0.739-1.473,1.106-2.76,1.106h-9.842
				L515.211,129.719z M514.996,128.891h8.465c0.634,0,0.949-0.327,0.949-0.981v-0.613c0-0.348-0.074-0.595-0.229-0.738
				c-0.154-0.142-0.393-0.213-0.72-0.213h-6.136c-0.858,0-1.462,0.181-1.807,0.536c-0.346,0.357-0.523,0.996-0.523,1.916
				L514.996,128.891L514.996,128.891z"/>
			<path fill="#949494" d="M531.679,134.596h13.77c0.326,0,0.552-0.068,0.673-0.201s0.184-0.353,0.184-0.661v-0.37
				c0-0.223-0.041-0.39-0.121-0.505c-0.081-0.113-0.247-0.18-0.489-0.202l-10.459-0.891c-1.289-0.104-2.238-0.5-2.852-1.198
				c-0.615-0.694-0.919-1.623-0.919-2.79v-1.349c0-1.226,0.338-2.192,1.012-2.897c0.675-0.707,1.778-1.059,3.31-1.059h15.179
				c0.512,0,0.766,0.254,0.766,0.767v3.77l-4.782,1.779h-0.214v-1.936c0-0.161-0.069-0.247-0.215-0.247h-8.77
				c-0.306,0-0.525,0.063-0.646,0.184c-0.122,0.124-0.184,0.33-0.184,0.617v0.461c0,0.288,0.045,0.472,0.138,0.552
				c0.092,0.082,0.26,0.143,0.506,0.184l10.701,1.044c0.714,0.062,1.307,0.193,1.779,0.396c0.473,0.206,0.845,0.478,1.133,0.812
				c0.289,0.341,0.484,0.755,0.6,1.244c0.113,0.489,0.167,1.065,0.167,1.715v1.256c0,1.348-0.351,2.394-1.059,3.125
				c-0.708,0.737-1.957,1.105-3.757,1.105h-15.453L531.679,134.596L531.679,134.596z"/>
			<path fill="#949494" d="M567.528,126.713h-4.906v12.604h-5.549v-12.604h-2.209l-1.532-3.988v-0.247h3.741v-5.489h5.549v5.489
				h4.906V126.713z"/>
			<path fill="#949494" d="M569.583,139.316v-22.325h6.319v22.325H569.583z"/>
			<path fill="#949494" d="M609.235,139.316v-16.774c0-0.326-0.155-0.487-0.46-0.487h-0.341c-0.265,0-0.449,0.132-0.552,0.396
				l-6.102,16.162c-0.104,0.287-0.247,0.478-0.432,0.57c-0.184,0.091-0.438,0.139-0.766,0.139h-7.27
				c-0.346,0-0.609-0.048-0.782-0.139c-0.173-0.093-0.311-0.283-0.413-0.57l-6.072-16.162c-0.104-0.265-0.297-0.396-0.583-0.396
				h-0.306c-0.327,0-0.488,0.161-0.488,0.487v16.774h-5.918v-21.404c0-0.616,0.287-0.921,0.858-0.921h10.09
				c0.654,0,1.082,0.277,1.29,0.83l5.488,15.946c0.023,0.122,0.122,0.184,0.308,0.184h0.551c0.123,0,0.207-0.062,0.25-0.184
				l5.517-15.946c0.105-0.266,0.251-0.476,0.444-0.617c0.197-0.143,0.467-0.213,0.812-0.213h9.968c0.571,0,0.858,0.306,0.858,0.921
				v21.404H609.235L609.235,139.316z"/>
			<path fill="#949494" d="M638.063,124.719h-0.248v-2.453c0-0.246-0.12-0.367-0.367-0.367h-11.776
				c-0.432,0-0.725,0.091-0.892,0.275c-0.163,0.184-0.248,0.449-0.248,0.798v0.554c0,0.432,0.071,0.708,0.215,0.829
				s0.42,0.213,0.828,0.276l13.861,1.932c0.879,0.124,1.624,0.313,2.239,0.572c0.613,0.254,1.115,0.594,1.502,1.012
				c0.388,0.42,0.662,0.935,0.829,1.549c0.162,0.613,0.245,1.34,0.245,2.178v1.777c0,0.922-0.114,1.733-0.338,2.438
				c-0.225,0.708-0.594,1.301-1.106,1.779c-0.511,0.479-1.186,0.845-2.024,1.09c-0.839,0.243-1.871,0.367-3.097,0.367h-19.873
				v-5.797h17.818c0.53,0,0.887-0.096,1.059-0.291c0.174-0.197,0.261-0.537,0.261-1.027v-0.615c0-0.388-0.069-0.662-0.202-0.813
				c-0.132-0.156-0.392-0.251-0.783-0.294l-13.371-1.684c-0.897-0.123-1.669-0.307-2.313-0.555
				c-0.645-0.246-1.169-0.571-1.577-0.982c-0.41-0.408-0.707-0.908-0.89-1.499c-0.183-0.592-0.275-1.302-0.275-2.118v-1.566
				c0-1.616,0.431-2.866,1.287-3.757c0.858-0.892,2.291-1.335,4.293-1.335h19.842c0.634,0,0.951,0.327,0.951,0.979v4.599
				L638.063,124.719z"/>
		</g>
	</g>
</g>
<g>
	<circle fill="none" stroke="#606060" stroke-miterlimit="10" cx="656.615" cy="28.552" r="11.669"/>
	<g>
		<path fill="#606060" d="M651.611,35.352V22.468h5.713c1.146,0,2.021,0.116,2.619,0.347c0.598,0.231,1.073,0.64,1.434,1.226
			c0.357,0.586,0.535,1.233,0.535,1.942c0,0.914-0.296,1.685-0.888,2.312c-0.594,0.627-1.508,1.025-2.742,1.195
			c0.451,0.217,0.794,0.431,1.028,0.642c0.496,0.457,0.97,1.028,1.413,1.714l2.24,3.507h-2.146l-1.705-2.681
			c-0.498-0.773-0.908-1.365-1.229-1.775s-0.608-0.697-0.866-0.861c-0.254-0.164-0.515-0.278-0.775-0.343
			c-0.192-0.041-0.51-0.063-0.948-0.063h-1.979v5.722H651.611L651.611,35.352z M653.316,28.155h3.664
			c0.778,0,1.39-0.081,1.827-0.242c0.438-0.161,0.772-0.419,1.002-0.773c0.23-0.354,0.345-0.74,0.345-1.156
			c0-0.609-0.224-1.11-0.663-1.503c-0.442-0.393-1.144-0.589-2.099-0.589h-4.076V28.155L653.316,28.155z"/>
	</g>
</g>
<rect x="656.615" y="217.883" fill="#202020" stroke="#FFFFFF" stroke-miterlimit="10" width="0" height="2"/>
</svg>
