<?xml version="1.0" encoding="utf-8"?>
<!-- Generator: Adobe Illustrator 16.0.0, SVG Export Plug-In . SVG Version: 6.00 Build 0)  -->
<!DOCTYPE svg PUBLIC "-//W3C//DTD SVG 1.1//EN" "http://www.w3.org/Graphics/SVG/1.1/DTD/svg11.dtd">
<svg version="1.1" id="Layer_1" xmlns="http://www.w3.org/2000/svg" xmlns:xlink="http://www.w3.org/1999/xlink" x="0px" y="0px"
	 width="631px" height="149px" viewBox="0 0 631 149" enable-background="new 0 0 631 149" xml:space="preserve">
<path display="none" fill="#97A6BA" d="M106.914,642.307c2.18,7.146-49.745,33.047-49.745,33.047l3.261,5.951l-15.174,8.063
	l14.92-1.72l-0.505,2.628l-20.046,2.308l-2.291,1.257l-1.031-1.905l-4.016,1.709l-6.827-12.985l3.702-1.933l-1.144-2.109
	l22.991-11.659l3.31,5.739c0,0,50.351-23.923,54.118-35.434"/>
<path display="none" fill="#FFFFFF" d="M139.962,392.068C125.688,405.225,86.134,420.8,86.134,420.8l1.925,4.325l-15.782,6.808
	l15.01-0.488l-0.718,2.563L66.4,434.663l-2.386,1.063l-1.295-2.178l-4.541,2.009l-6.233-13.265l5.161-2.302l-0.967-2.201
	l23.867-9.741l1.969,4.168c0,0,29.636-9.491,57.694-29.063"/>
<g>
	<g>
		<g>
			<path fill="#515151" d="M29.324,48.989v-9.32h11.635v9.32H29.324z M29.324,89.809V54.518h11.635v35.291H29.324z"/>
			<path fill="#515151" d="M46.935,54.518h28.797c2.613,0,4.842,0.332,6.685,0.996c1.842,0.665,3.332,1.606,4.467,2.829
				c1.135,1.221,1.961,2.689,2.475,4.402c0.514,1.715,0.771,3.644,0.771,5.785v21.276H78.495V69.302
				c0-2.059-0.386-3.492-1.157-4.309c-0.771-0.813-2.036-1.221-3.792-1.221H60.947l-1.928-5.143h-0.45v31.176H46.934L46.935,54.518
				L46.935,54.518z"/>
			<path fill="#515151" d="M120.985,63.389H110.7v26.419H99.065V63.389h-4.757l-3.085-8.356v-0.514h7.842v-4.243
				c0-2.099,0.214-3.825,0.643-5.174c0.428-1.351,1.146-2.433,2.153-3.247c1.006-0.813,2.335-1.382,3.985-1.703
				c1.649-0.32,3.696-0.482,6.139-0.482h5.207l3.146,7.908v0.578h-6.813c-1.115,0-1.864,0.247-2.25,0.739
				c-0.386,0.493-0.578,1.317-0.578,2.476v3.149h10.285L120.985,63.389L120.985,63.389z"/>
			<path fill="#515151" d="M154.024,69.303h-0.518v-4.821c0-0.471-0.216-0.707-0.644-0.707h-14.206
				c-1.028,0-1.758,0.236-2.188,0.707c-0.43,0.473-0.644,1.286-0.644,2.441v22.886h-11.635V64.417c0-3,0.778-5.399,2.346-7.199
				c1.564-1.801,4.063-2.7,7.489-2.7h28.604c1.114,0,1.672,0.578,1.672,1.735v9.127L154.024,69.303z"/>
			<path fill="#515151" d="M168.552,63.26v-8.742h32.783c2.313,0,4.021,0.644,5.11,1.928c1.092,1.285,1.639,3.15,1.639,5.593v26.227
				c0,1.027-0.493,1.543-1.479,1.543h-30.791c-1.285,0-2.437-0.16-3.438-0.479c-1.008-0.32-1.864-0.867-2.571-1.642
				c-0.707-0.773-1.24-1.789-1.604-3.053c-0.364-1.266-0.546-2.84-0.546-4.727v-2.637c0-3.341,0.717-5.73,2.149-7.167
				c1.438-1.436,3.438-2.152,6.014-2.152h17.934l2.188,5.207h0.445v-7.136c0-0.985-0.199-1.692-0.606-2.121
				c-0.407-0.428-1.021-0.643-1.832-0.643H168.552z M195.678,81.064c0.476,0,0.707-0.256,0.707-0.771v-5.396h-15.298
				c-0.771,0-1.314,0.193-1.64,0.579c-0.326,0.388-0.482,0.965-0.482,1.734v1.543c0,0.729,0.161,1.298,0.482,1.705
				c0.321,0.408,0.868,0.607,1.64,0.607L195.678,81.064L195.678,81.064z"/>
			<path fill="#515151" d="M258.993,75.794c0,2.146-0.257,4.072-0.771,5.785c-0.514,1.715-1.35,3.185-2.507,4.403
				c-1.152,1.222-2.652,2.164-4.499,2.828c-1.844,0.664-4.067,0.996-6.686,0.996h-16.97c-2.614,0-4.832-0.332-6.653-0.996
				c-1.822-0.664-3.313-1.606-4.468-2.828c-1.156-1.223-1.992-2.688-2.507-4.403c-0.519-1.711-0.771-3.644-0.771-5.785V68.53
				c0-2.1,0.258-4.02,0.771-5.754c0.515-1.734,1.351-3.214,2.507-4.435c1.152-1.224,2.646-2.164,4.468-2.829
				c1.821-0.664,4.039-0.996,6.653-0.996h16.97c2.613,0,4.842,0.332,6.686,0.996c1.847,0.665,3.347,1.605,4.499,2.829
				c1.157,1.221,1.993,2.698,2.512,4.435c0.515,1.735,0.771,3.654,0.771,5.754L258.993,75.794L258.993,75.794z M242.409,79.458
				c1.842,0,3.127-0.363,3.854-1.092c0.729-0.729,1.098-2.101,1.098-4.115v-4.949c0-2.143-0.375-3.6-1.125-4.371
				s-2.024-1.157-3.824-1.157h-12.663c-1.844,0-3.118,0.396-3.825,1.188c-0.707,0.791-1.061,2.24-1.061,4.34v4.949
				c0,2.017,0.354,3.388,1.061,4.115s1.981,1.092,3.825,1.092H242.409L242.409,79.458z"/>
			<path fill="#515151" d="M264.393,54.518h28.797c2.609,0,4.843,0.332,6.686,0.996c1.842,0.665,3.331,1.606,4.468,2.829
				c1.14,1.221,1.96,2.689,2.479,4.402c0.514,1.715,0.771,3.644,0.771,5.785v21.276h-11.635V69.302c0-2.059-0.386-3.492-1.157-4.309
				c-0.771-0.813-2.036-1.221-3.793-1.221H278.41l-1.928-5.143h-0.45v31.176h-11.639V54.518L264.393,54.518z"/>
		</g>
		<g>
			<g>
				<path fill="#989898" d="M328.007,92.489h-15.299v-0.515l23.462-44.739c0.299-0.6,0.604-1.007,0.9-1.222
					c0.299-0.214,0.813-0.321,1.541-0.321h16.136c0.729,0,1.253,0.107,1.573,0.321c0.322,0.215,0.654,0.622,0.998,1.222
					l23.27,44.739v0.515h-40.047l-3.854-10.156v-1.282h13.106c1.371,0,2.563,0,3.567,0c1.006,0,1.896,0.012,2.668,0.028
					c0.771,0.022,1.457,0.058,2.058,0.101c0.604,0.043,1.183,0.086,1.735,0.129l0.189-0.451c-0.26-0.471-0.523-0.932-0.807-1.381
					c-0.275-0.451-0.589-0.998-0.932-1.642c-0.346-0.644-0.75-1.413-1.228-2.313c-0.472-0.897-1.05-2.035-1.729-3.405l-7.396-14.783
					c-0.172-0.301-0.473-0.451-0.896-0.451h-0.771c-0.386,0-0.665,0.15-0.836,0.451L328.007,92.489z"/>
				<path fill="#989898" d="M383.8,82.591h28.862c0.685,0,1.157-0.139,1.414-0.418c0.257-0.278,0.386-0.739,0.386-1.383V80.02
					c0-0.472-0.087-0.826-0.257-1.063c-0.172-0.233-0.516-0.375-1.029-0.418l-21.919-1.862c-2.7-0.216-4.688-1.05-5.979-2.509
					c-1.284-1.457-1.933-3.405-1.933-5.85v-2.828c0-2.57,0.707-4.596,2.121-6.074s3.729-2.217,6.942-2.217h31.816
					c1.066,0,1.604,0.535,1.604,1.606v7.905l-10.027,3.729h-0.446v-4.05c0-0.343-0.149-0.515-0.448-0.515h-18.386
					c-0.646,0-1.098,0.127-1.354,0.387c-0.257,0.257-0.387,0.688-0.387,1.285v0.965c0,0.601,0.098,0.984,0.289,1.156
					c0.191,0.173,0.548,0.301,1.062,0.387l22.438,2.188c1.499,0.127,2.74,0.406,3.728,0.834c0.985,0.43,1.778,0.998,2.379,1.705
					c0.604,0.707,1.021,1.574,1.258,2.603c0.23,1.028,0.354,2.229,0.354,3.6v2.637c0,2.83-0.739,5.018-2.218,6.56
					c-1.479,1.544-4.104,2.313-7.874,2.313H383.8V82.591L383.8,82.591z"/>
				<path fill="#989898" d="M431.367,82.591h28.861c0.686,0,1.152-0.139,1.414-0.418c0.258-0.278,0.387-0.739,0.387-1.383V80.02
					c0-0.472-0.087-0.826-0.258-1.063c-0.173-0.233-0.52-0.375-1.028-0.418l-21.919-1.862c-2.7-0.216-4.692-1.05-5.979-2.509
					c-1.279-1.457-1.928-3.405-1.928-5.85v-2.828c0-2.57,0.707-4.596,2.121-6.074s3.729-2.217,6.942-2.217h31.813
					c1.07,0,1.607,0.535,1.607,1.606v7.905l-10.028,3.729h-0.45v-4.05c0-0.343-0.146-0.515-0.444-0.515h-18.386
					c-0.643,0-1.093,0.127-1.35,0.387c-0.257,0.257-0.387,0.688-0.387,1.285v0.965c0,0.601,0.098,0.984,0.289,1.156
					c0.188,0.173,0.548,0.301,1.062,0.387l22.438,2.188c1.497,0.127,2.736,0.406,3.729,0.834c0.985,0.43,1.778,0.998,2.379,1.705
					c0.604,0.707,1.021,1.574,1.253,2.603c0.235,1.028,0.354,2.229,0.354,3.6v2.637c0,2.83-0.738,5.018-2.219,6.56
					c-1.479,1.544-4.104,2.313-7.875,2.313h-32.396L431.367,82.591L431.367,82.591z"/>
				<path fill="#989898" d="M491.083,72.37h-0.45v5.463c0,2.017,0.348,3.396,1.028,4.146c0.686,0.75,1.971,1.125,3.856,1.125h25.134
					v9.386h-27.318c-2.614,0-4.832-0.33-6.653-0.996c-1.816-0.664-3.311-1.604-4.468-2.828c-1.156-1.222-1.992-2.688-2.507-4.399
					c-0.514-1.713-0.771-3.646-0.771-5.785v-7.264c0-2.144,0.264-4.071,0.771-5.785c0.515-1.713,1.351-3.183,2.507-4.403
					c1.157-1.222,2.646-2.164,4.468-2.828c1.822-0.664,4.039-0.996,6.653-0.996h20.377c2.699,0,4.628,0.696,5.785,2.09
					c1.156,1.393,1.735,3.565,1.735,6.522v3.407c0,2.613-0.579,4.691-1.735,6.234c-1.157,1.541-3.086,2.313-5.785,2.313h-20.635
					L491.083,72.37z M490.633,70.634h17.741c1.328,0,1.993-0.686,1.993-2.057V67.29c0-0.729-0.161-1.242-0.482-1.543
					c-0.315-0.299-0.819-0.449-1.511-0.449H495.52c-1.805,0-3.063,0.375-3.793,1.125c-0.729,0.75-1.098,2.089-1.098,4.018
					L490.633,70.634L490.633,70.634z"/>
				<path fill="#989898" d="M553.177,66.071h-10.283v26.418h-11.64V66.071h-4.628l-3.215-8.355V57.2h7.843V45.694h11.64V57.2h10.279
					L553.177,66.071L553.177,66.071z"/>
				<path fill="#989898" d="M556.905,82.591h28.861c0.686,0,1.152-0.139,1.414-0.418c0.258-0.278,0.387-0.739,0.387-1.383V80.02
					c0-0.472-0.087-0.826-0.258-1.063c-0.177-0.233-0.52-0.375-1.028-0.418l-21.919-1.862c-2.7-0.216-4.692-1.05-5.979-2.509
					c-1.285-1.457-1.928-3.405-1.928-5.85v-2.828c0-2.57,0.707-4.596,2.121-6.074s3.729-2.217,6.941-2.217h31.813
					c1.07,0,1.606,0.535,1.606,1.606v7.905l-10.027,3.729h-0.45v-4.05c0-0.343-0.146-0.515-0.448-0.515h-18.38
					c-0.643,0-1.093,0.127-1.35,0.387c-0.257,0.257-0.386,0.688-0.386,1.285v0.965c0,0.601,0.097,0.984,0.288,1.156
					c0.188,0.173,0.548,0.301,1.062,0.387l22.435,2.188c1.5,0.127,2.741,0.406,3.729,0.834c0.984,0.43,1.777,0.998,2.379,1.705
					c0.604,0.707,1.021,1.574,1.253,2.603c0.235,1.028,0.354,2.229,0.354,3.6v2.637c0,2.83-0.739,5.018-2.224,6.56
					c-1.479,1.544-4.104,2.313-7.874,2.313h-32.396v-9.901H556.905L556.905,82.591z"/>
			</g>
		</g>
		<g>
			<path fill="#949494" d="M161.42,119.15h-0.198v9.019h-5.819v-19.729c0-0.563,0.271-0.848,0.816-0.848h15.943
				c1.395,0,2.577,0.17,3.547,0.51c0.97,0.338,1.757,0.823,2.36,1.455c0.603,0.631,1.041,1.396,1.313,2.305
				c0.273,0.904,0.41,1.925,0.41,3.056v1.668c0,2.354-0.57,4.123-1.71,5.301c-1.14,1.181-3.02,1.77-5.639,1.77h-9.3L161.42,119.15z
				 M161.59,112.734c-0.245,0-0.368,0.132-0.368,0.396v5.483h10.205c0.942,0,1.604-0.188,1.979-0.563s0.563-0.989,0.563-1.841v-1.02
				c0-0.961-0.188-1.609-0.563-1.949c-0.377-0.34-1.037-0.51-1.979-0.51h-9.837V112.734L161.59,112.734z"/>
			<path fill="#949494" d="M202.011,122.007c0,0.941-0.108,1.789-0.339,2.544c-0.226,0.754-0.594,1.399-1.103,1.938
				c-0.509,0.537-1.168,0.951-1.979,1.242c-0.811,0.293-1.791,0.438-2.938,0.438h-7.463c-1.15,0-2.125-0.146-2.93-0.438
				c-0.801-0.291-1.456-0.705-1.964-1.242c-0.508-0.537-0.876-1.184-1.103-1.938c-0.229-0.755-0.339-1.603-0.339-2.544v-3.194
				c0-0.924,0.109-1.767,0.339-2.529c0.226-0.764,0.594-1.412,1.103-1.949c0.513-0.537,1.163-0.95,1.964-1.24
				c0.805-0.297,1.776-0.438,2.93-0.438h7.463c1.146,0,2.129,0.146,2.938,0.438c0.813,0.29,1.474,0.703,1.979,1.24
				c0.505,0.537,0.876,1.188,1.103,1.949c0.229,0.767,0.339,1.605,0.339,2.529V122.007z M194.718,123.618
				c0.813,0,1.375-0.16,1.696-0.479c0.32-0.32,0.48-0.925,0.48-1.811v-2.182c0-0.938-0.165-1.582-0.495-1.922
				s-0.895-0.509-1.686-0.509h-5.565c-0.813,0-1.371,0.175-1.686,0.521c-0.311,0.351-0.466,0.982-0.466,1.906v2.178
				c0,0.888,0.155,1.488,0.466,1.813c0.313,0.318,0.872,0.479,1.686,0.479h5.568L194.718,123.618L194.718,123.618z"/>
			<path fill="#949494" d="M214.645,112.648h5.818c0.565,0,0.914,0.257,1.046,0.765l2.634,10.973
				c0.019,0.171,0.132,0.255,0.34,0.255h0.254c0.207,0,0.33-0.084,0.367-0.255l1.895-11.729h4.861v0.229l-2.771,14.672
				c-0.076,0.414-0.377,0.621-0.899,0.621h-6.847c-0.277,0-0.492-0.059-0.636-0.17c-0.142-0.111-0.24-0.303-0.297-0.564
				l-2.601-10.823c-0.037-0.136-0.123-0.199-0.259-0.199h-0.227c-0.132,0-0.217,0.063-0.254,0.199l-2.375,10.823
				c-0.061,0.267-0.188,0.453-0.381,0.564c-0.199,0.111-0.435,0.17-0.693,0.17h-6.53c-0.302,0-0.5-0.055-0.594-0.154
				c-0.094-0.101-0.16-0.26-0.198-0.467l-3.081-14.672v-0.229h4.833l2.12,11.729c0.021,0.171,0.132,0.255,0.339,0.255h0.259
				c0.24,0,0.377-0.099,0.396-0.283l2.516-10.938C213.797,112.905,214.117,112.648,214.645,112.648z"/>
			<path fill="#949494" d="M238.557,119.32h-0.192v2.402c0,0.887,0.146,1.494,0.452,1.822c0.302,0.33,0.861,0.496,1.691,0.496
				h11.058v4.127h-12.019c-1.146,0-2.125-0.146-2.926-0.438c-0.802-0.293-1.456-0.707-1.965-1.244
				c-0.509-0.536-0.877-1.182-1.104-1.937c-0.226-0.755-0.339-1.603-0.339-2.544v-3.193c0-0.942,0.113-1.791,0.339-2.545
				c0.229-0.754,0.599-1.397,1.104-1.938c0.509-0.537,1.163-0.951,1.965-1.244c0.801-0.291,1.775-0.438,2.926-0.438h8.961
				c1.188,0,2.035,0.308,2.544,0.918c0.514,0.613,0.768,1.569,0.768,2.869v1.498c0,1.148-0.254,2.063-0.768,2.742
				c-0.509,0.68-1.354,1.02-2.544,1.02h-9.069L238.557,119.32z M238.359,118.559h7.802c0.584,0,0.876-0.302,0.876-0.904v-0.563
				c0-0.319-0.07-0.549-0.211-0.682c-0.143-0.134-0.363-0.197-0.665-0.197h-5.653c-0.792,0-1.348,0.166-1.668,0.494
				c-0.315,0.33-0.479,0.92-0.479,1.771L238.359,118.559L238.359,118.559z"/>
			<path fill="#949494" d="M267.332,119.15h-0.227v-2.118c0-0.207-0.099-0.313-0.282-0.313h-6.247c-0.453,0-0.773,0.104-0.961,0.313
				c-0.189,0.207-0.283,0.563-0.283,1.073v10.063h-5.117v-11.166c0-1.318,0.349-2.375,1.032-3.166
				c0.688-0.791,1.786-1.188,3.294-1.188h12.578c0.491,0,0.735,0.254,0.735,0.765v4.019L267.332,119.15z"/>
			<path fill="#949494" d="M278.977,119.32h-0.198v2.402c0,0.887,0.146,1.494,0.452,1.822c0.302,0.33,0.862,0.496,1.691,0.496
				h11.058v4.127h-12.017c-1.146,0-2.125-0.146-2.926-0.438c-0.801-0.293-1.456-0.707-1.965-1.244
				c-0.509-0.536-0.876-1.182-1.104-1.937c-0.226-0.755-0.339-1.603-0.339-2.544v-3.193c0-0.942,0.113-1.791,0.339-2.545
				c0.229-0.754,0.599-1.397,1.104-1.938c0.509-0.537,1.164-0.951,1.965-1.244c0.801-0.291,1.776-0.438,2.926-0.438h8.961
				c1.188,0,2.035,0.308,2.544,0.918c0.514,0.613,0.769,1.569,0.769,2.869v1.498c0,1.148-0.255,2.063-0.769,2.742
				c-0.509,0.68-1.354,1.02-2.544,1.02h-9.069L278.977,119.32z M278.778,118.559h7.803c0.583,0,0.876-0.302,0.876-0.904v-0.563
				c0-0.319-0.07-0.549-0.212-0.682c-0.142-0.134-0.363-0.197-0.664-0.197h-5.654c-0.791,0-1.348,0.166-1.668,0.494
				c-0.315,0.33-0.479,0.92-0.479,1.771L278.778,118.559L278.778,118.559z"/>
			<path fill="#949494" d="M300.77,128.169c-1.149,0-2.125-0.146-2.931-0.438c-0.801-0.291-1.446-0.705-1.945-1.242
				c-0.5-0.537-0.862-1.184-1.094-1.938c-0.226-0.755-0.339-1.603-0.339-2.544v-3.194c0-0.924,0.113-1.767,0.339-2.529
				c0.229-0.764,0.594-1.412,1.094-1.949c0.499-0.537,1.146-0.953,1.945-1.241c0.806-0.296,1.776-0.438,2.931-0.438h7.571v-6.525
				h5.116v22.05H300.77V128.169z M306.593,123.618l1.526,3.985h0.227V116.72h-6.61c-0.438,0-0.787,0.048-1.063,0.142
				c-0.271,0.095-0.488,0.261-0.646,0.494c-0.16,0.235-0.273,0.543-0.339,0.92s-0.104,0.849-0.104,1.412v1.642
				c0,0.888,0.16,1.487,0.48,1.813c0.315,0.316,0.877,0.479,1.668,0.479h4.86L306.593,123.618L306.593,123.618z"/>
			<path fill="#949494" d="M328.188,106.12h5.111v6.528h7.553c1.146,0,2.129,0.146,2.938,0.438c0.812,0.296,1.465,0.707,1.965,1.244
				c0.499,0.537,0.862,1.188,1.088,1.951c0.229,0.767,0.345,1.604,0.345,2.528v3.193c0,0.941-0.112,1.791-0.345,2.545
				c-0.226,0.754-0.589,1.398-1.088,1.938c-0.5,0.537-1.149,0.951-1.965,1.242c-0.812,0.293-1.791,0.438-2.938,0.438h-5.771
				l-1.556-3.957h-0.196v3.957h-5.146L328.188,106.12L328.188,106.12z M333.305,116.721v6.897h6.588c0.813,0,1.375-0.16,1.693-0.479
				c0.32-0.32,0.48-0.925,0.48-1.812v-2.181c0-0.924-0.16-1.563-0.48-1.903c-0.318-0.353-0.886-0.522-1.693-0.522H333.305
				L333.305,116.721z"/>
			<path fill="#949494" d="M363.15,126.331h0.199v-13.687h5.145v15.83c0,0.905-0.108,1.729-0.325,2.478
				c-0.217,0.746-0.563,1.381-1.06,1.905c-0.492,0.526-1.146,0.938-1.95,1.229c-0.813,0.294-1.812,0.438-2.997,0.438h-11.787v-4.321
				h10.996c0.734,0,1.248-0.164,1.54-0.494s0.438-0.854,0.438-1.567v-1.244h-7.316c-2.318,0-3.958-0.465-4.92-1.396
				c-0.961-0.936-1.44-2.354-1.44-4.254v-8.596h5.146v7.914c0,0.852,0.156,1.43,0.479,1.74c0.323,0.31,0.886,0.465,1.696,0.465
				h4.771L363.15,126.331z"/>
			<path fill="#949494" d="M389.27,116.27h-0.197v6.162c0,0.264,0.131,0.396,0.396,0.396h17.356v5.342h-22.756
				c-0.547,0-0.819-0.28-0.819-0.851v-18.883c0-0.563,0.272-0.852,0.819-0.852h22.104c0.565,0,0.854,0.283,0.854,0.852v5.345
				l-5.399,2.008H401.4v-2.742c0-0.205-0.101-0.313-0.282-0.313h-11.675c-0.151,0-0.25,0.043-0.297,0.127
				c-0.054,0.086-0.07,0.179-0.07,0.271v2.574h9.609v4.184h-8.061L389.27,116.27z"/>
			<path fill="#949494" d="M418.807,124.042c0.063,0.113,0.15,0.168,0.283,0.168h0.229c0.108,0,0.192-0.055,0.255-0.168
				l4.664-11.396h5.343v0.229l-6.672,14.758c-0.094,0.208-0.197,0.35-0.313,0.424c-0.108,0.076-0.277,0.111-0.51,0.111h-5.88
				c-0.245,0-0.424-0.035-0.537-0.111c-0.108-0.074-0.217-0.216-0.311-0.424l-6.673-14.758v-0.229h5.456L418.807,124.042z"/>
			<path fill="#949494" d="M435.567,119.32h-0.198v2.402c0,0.887,0.15,1.494,0.452,1.822c0.302,0.33,0.866,0.496,1.695,0.496h11.054
				v4.127h-12.015c-1.148,0-2.125-0.146-2.931-0.438c-0.801-0.293-1.456-0.707-1.965-1.244c-0.509-0.536-0.876-1.182-1.104-1.937
				s-0.342-1.603-0.342-2.544v-3.193c0-0.942,0.113-1.791,0.342-2.545c0.229-0.754,0.597-1.397,1.104-1.938
				c0.509-0.537,1.164-0.951,1.965-1.244c0.806-0.291,1.776-0.438,2.931-0.438h8.961c1.188,0,2.03,0.308,2.544,0.918
				c0.51,0.613,0.765,1.569,0.765,2.869v1.498c0,1.148-0.255,2.063-0.765,2.742c-0.514,0.68-1.355,1.02-2.544,1.02h-9.073
				L435.567,119.32z M435.369,118.559h7.803c0.583,0,0.876-0.302,0.876-0.904v-0.563c0-0.319-0.064-0.549-0.212-0.682
				c-0.142-0.134-0.363-0.197-0.664-0.197h-5.648c-0.791,0-1.354,0.166-1.67,0.494c-0.318,0.33-0.479,0.92-0.479,1.771
				L435.369,118.559L435.369,118.559z"/>
			<path fill="#949494" d="M464.343,119.15h-0.227v-2.118c0-0.207-0.095-0.313-0.282-0.313h-6.247c-0.452,0-0.771,0.104-0.962,0.313
				c-0.188,0.207-0.282,0.563-0.282,1.073v10.063h-5.11v-11.166c0-1.318,0.344-2.375,1.025-3.166
				c0.688-0.791,1.785-1.188,3.295-1.188h12.578c0.489,0,0.734,0.254,0.734,0.765v4.019L464.343,119.15z"/>
			<path fill="#949494" d="M475.986,119.32h-0.198v2.402c0,0.887,0.151,1.494,0.452,1.822c0.302,0.33,0.867,0.496,1.695,0.496
				h11.054v4.127h-12.015c-1.148,0-2.125-0.146-2.931-0.438c-0.801-0.293-1.456-0.707-1.965-1.244
				c-0.509-0.536-0.876-1.182-1.104-1.937c-0.229-0.755-0.343-1.603-0.343-2.544v-3.193c0-0.942,0.112-1.791,0.343-2.545
				c0.228-0.754,0.595-1.397,1.104-1.938c0.509-0.537,1.164-0.951,1.965-1.244c0.806-0.291,1.776-0.438,2.931-0.438h8.961
				c1.188,0,2.03,0.308,2.545,0.918c0.509,0.613,0.764,1.569,0.764,2.869v1.498c0,1.148-0.255,2.063-0.764,2.742
				c-0.515,0.68-1.356,1.02-2.545,1.02h-9.073L475.986,119.32z M475.788,118.559h7.803c0.583,0,0.876-0.302,0.876-0.904v-0.563
				c0-0.319-0.064-0.549-0.212-0.682c-0.142-0.134-0.358-0.197-0.664-0.197h-5.648c-0.791,0-1.354,0.166-1.668,0.494
				c-0.32,0.33-0.48,0.92-0.48,1.771L475.788,118.559L475.788,118.559z"/>
			<path fill="#949494" d="M491.475,123.814h12.688c0.301,0,0.509-0.061,0.622-0.184c0.113-0.122,0.17-0.324,0.17-0.607v-0.34
				c0-0.207-0.038-0.36-0.113-0.466c-0.07-0.104-0.227-0.165-0.447-0.185l-9.645-0.819c-1.188-0.095-2.063-0.462-2.629-1.104
				c-0.563-0.643-0.849-1.495-0.849-2.569v-1.244c0-1.131,0.312-2.021,0.934-2.672c0.621-0.647,1.642-0.979,3.053-0.979h13.994
				c0.476,0,0.707,0.236,0.707,0.707v3.479l-4.41,1.642h-0.191v-1.779c0-0.148-0.066-0.228-0.198-0.228h-8.085
				c-0.282,0-0.48,0.058-0.594,0.17c-0.112,0.111-0.173,0.302-0.173,0.563v0.424c0,0.268,0.041,0.438,0.13,0.512
				c0.086,0.072,0.235,0.133,0.468,0.17l9.863,0.961c0.655,0.058,1.203,0.181,1.642,0.365c0.434,0.188,0.782,0.438,1.046,0.748
				c0.265,0.313,0.447,0.693,0.551,1.146c0.104,0.451,0.156,0.979,0.156,1.584v1.156c0,1.244-0.325,2.205-0.977,2.885
				c-0.65,0.68-1.81,1.02-3.467,1.02h-14.244L491.475,123.814L491.475,123.814z"/>
			<path fill="#949494" d="M524.829,116.551h-4.522v11.618h-5.111v-11.618h-2.035l-1.413-3.675v-0.229h3.448v-5.062h5.111v5.062
				h4.522V116.551L524.829,116.551z"/>
			<path fill="#949494" d="M527.033,128.169v-20.58h5.823v20.58H527.033z"/>
			<path fill="#949494" d="M563.891,128.169v-15.463c0-0.301-0.141-0.453-0.424-0.453h-0.311c-0.245,0-0.415,0.123-0.509,0.367
				l-5.626,14.896c-0.1,0.268-0.229,0.438-0.396,0.521c-0.17,0.086-0.405,0.127-0.707,0.127h-6.699
				c-0.314,0-0.561-0.041-0.721-0.127c-0.16-0.084-0.287-0.258-0.382-0.521l-5.597-14.896c-0.101-0.244-0.273-0.367-0.537-0.367
				h-0.283c-0.302,0-0.452,0.149-0.452,0.453v15.463h-5.455v-19.731c0-0.564,0.269-0.848,0.791-0.848h9.3
				c0.604,0,0.999,0.254,1.188,0.764l5.061,14.699c0.021,0.112,0.112,0.17,0.282,0.17h0.509c0.113,0,0.188-0.058,0.229-0.17
				l5.088-14.699c0.094-0.244,0.229-0.435,0.41-0.564c0.179-0.131,0.429-0.193,0.749-0.193h9.187c0.528,0,0.792,0.277,0.792,0.848
				v19.729h-5.487V128.169z"/>
			<path fill="#949494" d="M590.771,114.712h-0.229v-2.26c0-0.229-0.113-0.345-0.339-0.345H579.35c-0.396,0-0.671,0.086-0.815,0.259
				c-0.151,0.17-0.229,0.416-0.229,0.731v0.508c0,0.396,0.066,0.649,0.198,0.769c0.132,0.108,0.386,0.192,0.764,0.254l12.776,1.781
				c0.813,0.108,1.498,0.282,2.063,0.521c0.563,0.233,1.022,0.547,1.387,0.936c0.354,0.387,0.609,0.859,0.763,1.428
				c0.151,0.564,0.229,1.232,0.229,2.01v1.641c0,0.851-0.104,1.599-0.313,2.246c-0.207,0.648-0.547,1.197-1.018,1.644
				c-0.477,0.44-1.099,0.774-1.865,1.004c-0.773,0.228-1.726,0.338-2.855,0.338H572.12v-5.342h16.424
				c0.489,0,0.814-0.09,0.975-0.271c0.161-0.183,0.241-0.494,0.241-0.947v-0.563c0-0.356-0.062-0.606-0.185-0.749
				c-0.122-0.146-0.362-0.229-0.722-0.271l-12.323-1.556c-0.83-0.112-1.541-0.283-2.136-0.51c-0.599-0.229-1.078-0.527-1.455-0.904
				c-0.379-0.377-0.649-0.838-0.819-1.385c-0.17-0.548-0.255-1.197-0.255-1.951v-1.439c0-1.488,0.396-2.645,1.188-3.464
				c0.792-0.817,2.11-1.229,3.958-1.229H595.3c0.584,0,0.876,0.303,0.876,0.903v4.235L590.771,114.712z"/>
		</g>
	</g>
</g>
<circle fill="#FFFFFF" stroke="#606060" stroke-miterlimit="10" cx="592.122" cy="30.145" r="11.669"/>
<g>
	<path fill="#606060" d="M587.118,36.945V24.061h5.713c1.147,0,2.021,0.116,2.619,0.347c0.598,0.231,1.075,0.641,1.433,1.227
		c0.358,0.586,0.536,1.232,0.536,1.941c0,0.914-0.296,1.686-0.888,2.313s-1.506,1.025-2.742,1.195
		c0.451,0.217,0.794,0.431,1.028,0.642c0.498,0.457,0.97,1.028,1.415,1.714l2.235,3.509h-2.145l-1.705-2.683
		c-0.498-0.772-0.908-1.365-1.229-1.775c-0.318-0.41-0.606-0.697-0.862-0.861c-0.255-0.163-0.52-0.277-0.777-0.342
		c-0.193-0.041-0.51-0.063-0.949-0.063h-1.978v5.724L587.118,36.945L587.118,36.945z M588.823,29.747h3.665
		c0.778,0,1.389-0.08,1.828-0.241c0.438-0.161,0.771-0.419,1.002-0.773c0.229-0.354,0.343-0.739,0.343-1.155
		c0-0.609-0.222-1.11-0.663-1.504c-0.443-0.393-1.143-0.589-2.097-0.589h-4.078V29.747z"/>
</g>
</svg>
