<svg xmlns="http://www.w3.org/2000/svg" xmlns:xlink="http://www.w3.org/1999/xlink" width="149" height="48" viewBox="0 0 149 48">
    <defs>
        <path id="29b5fmboma" d="M0.229 0.218L18.401 0.218 18.401 14.012 0.229 14.012z"/>
        <path id="f5m1rh9qxc" d="M0 47.782L148.634 47.782 148.634 0.239 0 0.239z"/>
    </defs>
    <g fill="none" fill-rule="evenodd">
        <g>
            <g>
                <g transform="translate(-48 -12) translate(48 12) translate(.263)">
                    <path fill="#30C3EA" d="M43.685 18.964c-.524-1.952-1.338-3.817-2.413-5.532L43.26 9.97C41.854 8.078 40.176 6.403 38.28 5l-3.466 1.984c-1.928-1.206-4.043-2.08-6.26-2.59L27.51.545C25.178.197 22.81.197 20.477.542l-.082.276-.97 3.576-.093.021-2.842 9.617c11.038-3.755 25.684 4.095 27.195 4.93M14.78 32.872c-4.26-1.419-8.307-2.924-10.202-3.64.526 1.905 1.327 3.725 2.379 5.403l-1.988 3.461c1.406 1.892 3.083 3.567 4.978 4.97l3.466-1.984c1.927 1.206 4.043 2.081 6.26 2.59l1.045 3.85c2.017.3 4.062.34 6.087.123l6.139-19.572s-12.3 6.75-18.164 4.799"/>
                    <g transform="translate(16.26 .021)">
                        <mask id="cr05q2k0eb" fill="#fff">
                            <use xlink:href="#29b5fmboma"/>
                        </mask>
                        <path fill="#6BCCE9" d="M2.372 13.432c-.726.15-1.441.342-2.143.58l2.842-9.617.093-.022.97-3.575.082-.276C6.86.13 8.602.102 11.25.522l1.045 3.851c2.158.496 4.22 1.338 6.106 2.495-9.107.195-13.753 3.72-16.029 6.564" mask="url(#cr05q2k0eb)"/>
                    </g>
                    <path fill="#C5C3C2" d="M47.947 22.986c-1.64-.869-4.777-2.348-10.446-4.5L30.035 43.69c1.68-.52 3.286-1.257 4.78-2.191l3.466 1.985c1.895-1.404 3.573-3.08 4.978-4.97l-1.988-3.462c1.208-1.924 2.084-4.038 2.593-6.252l3.857-1.043c.234-1.581.31-3.18.226-4.772M9.7 5C7.803 6.402 6.126 8.077 4.72 9.97l1.989 3.462c-1.207 1.925-2.084 4.038-2.593 6.25L.26 20.728c-.264 1.783-.326 3.59-.186 5.384l13.482 4.739c-3.014-3.742-.978-9.192.814-14.805 1.135-3.555 2.466-8.218 3.289-11.16-1.575.514-3.084 1.218-4.493 2.099L9.699 4.999z"/>
                    <path fill="#929497" d="M56.508 36.746c0 .174-.039.299-.116.376-.078.078-.213.116-.407.116H53.89v-1.124c0-.054.026-.081.076-.081h2.02c.193 0 .328.035.406.104.077.07.116.203.116.4v.209zm.841-1.365c-.124-.13-.285-.229-.484-.299-.2-.07-.442-.104-.729-.104h-3.273c-.112 0-.168.058-.168.174v4.045h1.195v-1.849h.041l.354.922h1.91c.537 0 .923-.121 1.157-.362.234-.242.351-.604.351-1.087v-.342c0-.232-.028-.44-.084-.626-.056-.185-.146-.343-.27-.472zM61.15 37.795c0 .181-.033.305-.098.37-.066.066-.182.099-.349.099H59.56c-.166 0-.281-.033-.345-.098-.064-.066-.096-.19-.096-.371v-.447c0-.189.032-.32.096-.39.064-.072.179-.108.345-.108h1.143c.163 0 .278.035.346.104.067.07.101.201.101.394v.447zm.755-1.435c-.105-.11-.24-.195-.407-.255-.166-.06-.367-.09-.603-.09h-1.532c-.236 0-.436.03-.6.09-.165.06-.3.145-.404.255-.104.11-.18.244-.226.4-.047.156-.07.33-.07.519v.655c0 .193.023.367.07.521.046.155.122.287.226.397.104.11.239.195.403.255.165.06.365.09.6.09h1.533c.236 0 .437-.03.603-.09.167-.06.302-.144.407-.255.104-.11.18-.242.226-.397.046-.154.07-.328.07-.521v-.655c0-.19-.024-.363-.07-.519-.047-.156-.122-.29-.226-.4zM66.878 38.42c-.008.035-.033.053-.076.053h-.052c-.043 0-.066-.018-.07-.053l-.54-2.248c-.026-.104-.098-.157-.214-.157h-1.195c-.109 0-.174.053-.198.157l-.516 2.243c-.004.038-.031.058-.081.058h-.053c-.042 0-.065-.018-.07-.053l-.434-2.405h-.993v.047l.633 3.008c.007.042.021.074.04.095.02.022.06.032.122.032h1.34c.055 0 .102-.012.143-.035.04-.023.067-.061.078-.116l.488-2.22c.007-.026.025-.04.052-.04h.046c.027 0 .045.014.053.04l.534 2.22c.011.055.031.093.06.116.03.023.073.035.13.035h1.405c.109 0 .17-.042.186-.127l.569-3.008v-.047h-.998l-.39 2.405zM71.317 37.041c0 .124-.06.186-.18.186h-1.601v-.018c0-.173.032-.294.098-.362.066-.067.18-.101.343-.101h1.16c.062 0 .108.013.137.04.028.027.043.074.043.14v.115zm.302-1.026h-1.84c-.236 0-.436.03-.6.09-.165.06-.3.145-.404.255-.104.11-.18.243-.226.397-.046.155-.07.329-.07.522v.655c0 .193.024.367.07.521.047.155.122.287.226.397.105.11.24.195.404.255.164.06.364.09.6.09h2.467v-.846h-2.27c-.17 0-.286-.034-.348-.101-.062-.068-.092-.193-.092-.374v-.493h.04l.18.487h1.863c.243 0 .418-.07.522-.209.105-.139.157-.326.157-.562v-.307c0-.267-.052-.463-.157-.588-.104-.126-.279-.189-.522-.189zM76.197 36.015h-2.582c-.31 0-.535.082-.676.244-.141.162-.212.378-.212.649v2.289h1.05v-2.063c0-.104.02-.178.059-.22.038-.043.104-.064.197-.064h1.282c.039 0 .058.021.058.064v.434h.047l.928-.353v-.823c0-.104-.05-.157-.15-.157M79.488 37.041c0 .124-.06.186-.18.186h-1.602v-.018c0-.173.033-.294.099-.362.066-.067.18-.101.342-.101h1.16c.063 0 .108.013.137.04.029.027.044.074.044.14v.115zm.301-1.026h-1.84c-.235 0-.435.03-.6.09-.164.06-.299.145-.403.255-.104.11-.18.243-.226.397-.047.155-.07.329-.07.522v.655c0 .193.023.367.07.521.046.155.122.287.226.397.104.11.239.195.403.255.165.06.365.09.6.09h2.467v-.846h-2.269c-.17 0-.286-.034-.348-.101-.062-.068-.093-.193-.093-.374v-.493h.04l.18.487h1.863c.244 0 .418-.07.523-.209.104-.139.156-.326.156-.562v-.307c0-.267-.052-.463-.156-.588-.105-.126-.279-.189-.523-.189zM83.712 39.081h-.046l-.314-.817h-.998c-.162 0-.276-.033-.342-.098-.066-.066-.099-.19-.099-.372v-.336c0-.115.007-.212.02-.29.014-.077.037-.14.07-.188.033-.048.078-.082.134-.101.056-.02.128-.029.217-.029h1.358v2.231zm0-3.066h-1.555c-.236 0-.436.03-.6.09-.165.06-.299.145-.401.255-.103.11-.177.244-.223.4-.047.157-.07.33-.07.519v.655c0 .193.023.367.07.521.046.155.12.287.223.397.102.11.236.195.4.255.165.06.365.09.6.09h2.607v-4.52h-1.05v1.338zM90.572 37.795c0 .181-.033.305-.1.37-.065.066-.181.099-.347.099h-1.352V36.85h1.352c.166 0 .282.036.348.107.066.072.099.202.099.391v.447zm.757-1.435c-.103-.11-.237-.195-.404-.255-.166-.06-.367-.09-.603-.09h-1.55v-1.338h-1.05v4.52h1.056v-.811h.041l.32.811h1.183c.236 0 .437-.03.603-.09.167-.06.301-.144.404-.255.102-.11.177-.242.223-.397.047-.154.07-.328.07-.521v-.655c0-.19-.023-.363-.07-.519-.046-.156-.12-.29-.223-.4zM94.878 38.82h-.041l-.284-.73h-.981c-.167 0-.283-.032-.348-.095-.066-.064-.099-.183-.099-.357v-1.623h-1.056v1.762c0 .39.099.681.296.872.197.192.534.287 1.01.287h1.503v.255c0 .147-.03.254-.09.322s-.166.101-.317.101h-2.257v.887h2.42c.244 0 .448-.03.615-.09.166-.06.3-.144.4-.252.1-.108.173-.239.218-.391.044-.153.067-.322.067-.507v-3.246h-1.056v2.805zM103.605 34.978h-4.538c-.112 0-.168.058-.168.174v3.871c0 .116.056.174.168.174h4.672v-1.095h-3.564c-.054 0-.08-.027-.08-.082v-1.263h.04l.278.742h1.654v-.858h-1.973v-.527c0-.02.005-.038.015-.055.01-.018.03-.026.06-.026h2.397c.039 0 .058.021.058.064v.562h.047l1.108-.412v-1.095c0-.116-.058-.174-.174-.174M106.292 38.351c-.012.023-.03.035-.052.035h-.047c-.027 0-.046-.012-.058-.035l-.957-2.336h-1.12v.047l1.37 3.025c.019.042.04.072.063.087s.06.023.11.023h1.207c.047 0 .082-.008.105-.023.023-.015.044-.045.064-.087l1.369-3.025v-.047h-1.097l-.957 2.336zM111.253 37.041c0 .124-.06.186-.18.186h-1.601v-.018c0-.173.033-.294.099-.362.065-.067.18-.101.342-.101h1.16c.062 0 .108.013.137.04.029.027.043.074.043.14v.115zm.302-1.026h-1.84c-.236 0-.436.03-.6.09-.164.06-.299.145-.403.255-.105.11-.18.243-.227.397-.046.155-.07.329-.07.522v.655c0 .193.024.367.07.521.047.155.122.287.227.397.104.11.239.195.403.255.164.06.364.09.6.09h2.467v-.846h-2.269c-.17 0-.286-.034-.348-.101-.062-.068-.093-.193-.093-.374v-.493h.04l.18.487h1.863c.244 0 .418-.07.522-.209.105-.139.157-.326.157-.562v-.307c0-.267-.052-.463-.157-.588-.104-.126-.278-.189-.522-.189zM116.134 36.015h-2.583c-.31 0-.535.082-.676.244-.14.162-.211.378-.211.649v2.289h1.05v-2.063c0-.104.02-.178.058-.22.038-.043.104-.064.197-.064h1.283c.038 0 .058.021.058.064v.434h.046l.929-.353v-.823c0-.104-.05-.157-.151-.157M119.424 37.041c0 .124-.06.186-.18.186h-1.601v-.018c0-.173.033-.294.098-.362.066-.067.18-.101.343-.101h1.16c.062 0 .108.013.137.04.028.027.043.074.043.14v.115zm.302-1.026h-1.84c-.236 0-.436.03-.6.09-.165.06-.3.145-.404.255-.104.11-.18.243-.226.397-.046.155-.07.329-.07.522v.655c0 .193.024.367.07.521.046.155.122.287.226.397.105.11.24.195.404.255.164.06.364.09.6.09h2.467v-.846h-2.27c-.17 0-.286-.034-.348-.101-.061-.068-.092-.193-.092-.374v-.493h.04l.18.487h1.863c.243 0 .418-.07.522-.209.105-.139.157-.326.157-.562v-.307c0-.267-.052-.463-.157-.588-.104-.126-.279-.189-.522-.189zM124.49 37.6c-.054-.063-.125-.114-.214-.153-.09-.039-.202-.064-.337-.075l-2.025-.198c-.047-.007-.079-.019-.096-.034-.018-.016-.026-.05-.026-.104v-.087c0-.055.011-.093.034-.116.024-.024.064-.035.122-.035h1.66c.027 0 .04.015.04.046v.365h.041l.906-.336v-.712c0-.097-.049-.146-.146-.146h-2.872c-.29 0-.5.067-.627.2-.127.134-.191.316-.191.548v.255c0 .22.058.396.174.528.116.13.296.206.54.226l1.978.168c.047.003.078.016.093.037.016.021.024.053.024.096v.07c0 .057-.012.099-.035.124-.024.025-.066.038-.128.038h-2.606v.892h2.925c.34 0 .577-.07.711-.209.134-.139.2-.336.2-.59v-.238c0-.124-.01-.232-.032-.325-.021-.092-.059-.17-.113-.234M126.655 34.978L125.604 34.978 125.604 36.015 124.896 36.015 124.896 36.062 125.186 36.815 125.604 36.815 125.604 39.197 126.655 39.197 126.655 36.815 127.583 36.815 127.583 36.015 126.655 36.015z"/>
                    <mask id="y5tmtiy6cd" fill="#fff">
                        <use xlink:href="#f5m1rh9qxc"/>
                    </mask>
                    <path fill="#929497" d="M127.972 39.197L129.167 39.197 129.167 34.978 127.972 34.978zM136.438 34.978h-1.885c-.066 0-.117.014-.154.04-.037.028-.065.066-.084.116l-1.045 3.014c-.008.023-.023.035-.046.035h-.105c-.035 0-.054-.012-.058-.035l-1.039-3.014c-.038-.104-.12-.156-.243-.156h-1.91c-.108 0-.162.058-.162.174v4.045h1.12v-3.17c0-.062.031-.093.093-.093h.058c.054 0 .09.025.11.075l1.15 3.055c.018.054.044.09.077.107s.083.026.148.026h1.376c.062 0 .11-.009.145-.026.035-.017.062-.053.081-.107l1.155-3.055c.019-.05.054-.075.104-.075h.064c.058 0 .087.031.087.093v3.17h1.126v-4.045c0-.116-.054-.174-.163-.174M142.056 37.377c-.031-.115-.083-.213-.157-.292-.073-.08-.168-.143-.284-.191-.116-.049-.257-.085-.424-.108l-2.623-.365c-.077-.012-.13-.029-.156-.052-.028-.023-.041-.075-.041-.157v-.104c0-.066.015-.116.046-.15.031-.035.087-.053.169-.053h2.228c.046 0 .07.024.07.07v.463h.046l1.109-.405v-.87c0-.123-.06-.185-.18-.185h-3.755c-.38 0-.65.084-.812.252-.163.168-.244.405-.244.71v.296c0 .154.017.288.052.4.035.112.09.206.168.284.078.077.178.139.3.185.12.046.267.081.438.104l2.53.319c.073.008.122.026.148.055.025.029.037.08.037.154v.116c0 .092-.016.157-.05.194-.032.036-.099.055-.2.055H137.1v1.095h3.76c.233 0 .428-.023.587-.07.158-.046.286-.114.383-.205.096-.09.166-.203.209-.336.042-.134.063-.287.063-.461v-.336c0-.159-.015-.296-.046-.412" mask="url(#y5tmtiy6cd)"/>
                    <path fill="#6BCCE9" d="M30.089 37.05l-3.303 10.53c-2.682.343-6.087-.122-6.087-.122l-1.046-3.85c-2.216-.51-4.332-1.384-6.259-2.59l-.385.22.024-.68S23.09 43.613 30.09 37.05" mask="url(#y5tmtiy6cd)"/>
                    <path fill="#FFF" d="M36.892 16.907c-3.108-3.713-8.453-4.645-13.469-4.674-.711 0-1.431.031-2.15.096 2.822-1.287 4.957-1.893 4.957-1.893l.308.713 4.08-1.51-.15-.376.882-.36-.977-2.27-.778.31-.206-.382-.408.152-3.405-.03-.136.372h2.535l-2.7 1.116.3.796s-6.423 2.285-9.043 4.38c-1.192.437-2.316 1.014-3.314 1.762-2.998 2.249-5.246 6.183-4.215 9.882.395 1.414 1.448 2.576 2.8 3.164.086 1.24.963 2.284 2.006 2.979.168.11.34.216.517.312.198.107.4.206.609.296.205.086.414.166.628.235.732.234.521.182.521.182-.456.813-1.042 1.714-.869 2.68.435 2.435 3.068.947 4.487-.29.798-.694 1.707-1.606 1.707-1.606.898.1 1.707-.18 2.472-.563 1.037-.508 2.214.065 3.318.317.343.078.694.125 1.046.132 2.74.054 4.485-2.782 4.485-2.782 2.358.245 4.317-1.24 5.314-3.038 1.744-3.146 1.2-7.293-1.152-10.102" mask="url(#y5tmtiy6cd)"/>
                    <path fill="#3E54A3" d="M19.58 22.484c-.014-.513.1-.67.68-.687l1.48-.048c.535-.014.695.131.712.647l.038 1.218c.017.54-.136.671-.672.688l-1.48.048c-.579.019-.703-.106-.72-.645l-.038-1.22zm14.097 5.08c-.682.308-1.462.344-2.181.146-.378-.106-.505.088-.505.088-.292.766-.794 1.528-1.523 2.006h-.001l-1.003-.232-.788-1.183c.026-.049.05-.1.062-.156.073-.323-.126-.644-.446-.718-.32-.074-.639.128-.712.449-.074.323.125.644.445.718.07.016.138.017.204.009l.906 1.36.528.123c-1.47.389-3.132-.747-4.733-.394-.861.191-1.624.721-2.435.554-.05-.012-.05-.012-.102-.021-.192-.048-.352.038-.352.038-.935.986-1.896 2.073-3.166 2.715-.153.079-.344.23-.471.105-.062-.06-.038-.186-.017-.291.19-.881.847-1.627 1.246-2.453.081-.165.148-.282.175-.508l-.237-.024-.086-.206-.031.01c-.861.274-2.066-.13-2.953-.721-.663-.445-1.38-1.276-1.155-2.1.095-.331-.175-.417-.175-.417-.64-.125-1.15-.4-1.54-.767l3.869.892.772 1.257.457-.286-.624-1.015c.013-.006.026-.013.037-.022.71-.577 1.434-1.135 2.128-1.732.007-.006.01-.015.017-.022l.001.001c.23.163.577.225 1.086.208l1.44-.043c1.121-.036 1.437-.394 1.408-1.356l-.038-1.194c-.029-.963-.369-1.3-1.488-1.263l-1.44.043c-1.116.035-1.432.391-1.403 1.354l.038 1.198c.008.249.036.456.094.626-.023.01-.045.022-.065.038-.706.574-1.428 1.129-2.118 1.723l-3.866-.913 1.524-1.026c.048.027.1.05.155.063.32.073.64-.128.713-.449.074-.323-.126-.644-.446-.718-.32-.075-.639.126-.712.45-.016.068-.017.137-.01.204l-1.94 1.307-.148-.035v-.002c-.412-.714-.546-1.573-.464-2.354.167-1.595.863-3.143 1.941-4.409l1.364.316 1.426-.899 1.22 1.927 1.405.325c.053.211.216.387.44.439.32.074.64-.127.713-.45.074-.321-.126-.643-.446-.717-.225-.052-.448.034-.587.2l-1.19-.275-1.099-1.736 1.426-.898 2.645.614.12-.528-2.862-.664-3.307 2.084-.849-.197c2.358-2.401 5.894-3.192 9.256-3.225.95-.005 1.923.024 2.893.11l1.228 2.002c-.02.04-.035.081-.046.126-.073.323.126.643.446.718.193.044.385-.012.524-.134l2.261.524-.39 1.703-1.416.515c-.172.021-.231.14-.236.294.01 1.38.05 2.498.034 3.878-.007.118-.165.172-.242.087-.695-.816-1.201-1.778-1.827-2.648-.54-.688-1.558-.157-1.547.552l.11 2.767c.002.02.005.039.01.057l.034 1.562-3.72 1.778c-.048-.027-.099-.05-.156-.063-.32-.074-.64.127-.713.449-.073.322.126.644.446.718.32.074.64-.128.713-.45.008-.036.012-.073.014-.11l3.865-1.85c.112-.058.177-.17.176-.294-.032-.75-.06-1.151-.091-1.737.007-.025.011-.052.01-.081-.1-1.522-.06-1.223-.11-2.787-.007-.237.338-.332.482-.162.661.844 1.202 1.778 1.827 2.649.452.575 1.3.149 1.307-.445l-.033-3.711 1.268-.46 2.186 3.575 3.52.816c-.356 1.302-1.126 2.515-2.374 3.08zm-5.21-10.717c-.025-.248-.2-.464-.455-.523-.083-.019-.166-.019-.245-.004l-1.015-1.613c1.472.17 2.928.482 4.27 1.026l-.371 1.62-2.184-.506zm7.72 7.035l-.014.07-3.303-.762-.895-1.464 2.231-1.406c.052.031.108.058.17.072.32.074.64-.127.712-.449.075-.322-.125-.643-.445-.717-.32-.075-.64.126-.712.448-.015.064-.016.126-.01.187l-2.228 1.403-1.008-1.648.838-3.666h.001c.251.115.5.242.742.376 2.867 1.588 4.438 4.652 3.921 7.556zm-.134-4.316c-.497-1.036-1.253-1.965-2.183-2.71-2.745-2.207-6.671-2.742-10.404-2.76-2.327-.003-4.68.314-6.77 1.255-2.195.987-3.926 2.66-4.85 4.683-.64 1.407-1.054 3.055-.52 4.562.234.661.678 1.248 1.279 1.664.49.342 1.257.587 1.257.587-.174.779.242 1.536.82 2.066.862.79 2.227 1.435 3.537 1.285-.265.566-.633 1.11-.93 1.679-.306.59-.602 1.234-.234 1.597.26.256.662.163.975.015.74-.347 1.356-.915 1.961-1.467.627-.57 1.34-1.27 1.34-1.27.377.081.767.124 1.147.057.4-.071.751-.293 1.124-.456 1.064-.463 2.305.003 3.496.27.294.064.593.098.895.093 1.248-.024 2.278-.814 2.907-1.746.153-.226.29-.468.41-.714.018-.043.035-.08.054-.121.323.086.655.138.993.143 1.403.019 2.601-.829 3.316-1.863 1.387-2.01 1.428-4.666.38-6.849z" mask="url(#y5tmtiy6cd)"/>
                    <path fill="#4D5DA3" d="M52.823 16.283L56.574 16.283 56.574 13.282 52.823 13.282zM52.823 29.425L56.574 29.425 56.574 18.063 52.823 18.063zM71.38 19.294c-.366-.393-.846-.696-1.44-.91-.594-.214-1.312-.321-2.155-.321h-9.284v11.362h3.75V19.387h.146l.622 1.656h4.062c.566 0 .974.131 1.222.393.249.263.373.725.373 1.387v6.602h3.751v-6.85c0-.69-.083-1.311-.248-1.863-.166-.552-.433-1.025-.798-1.418M79.058 17.049c0-.373.062-.638.187-.797.124-.158.366-.238.725-.238h2.197v-.186l-1.016-2.546h-1.678c-.788 0-1.448.052-1.98.155-.531.104-.96.287-1.284.549-.325.262-.556.61-.694 1.045-.139.434-.208.99-.208 1.666v1.366H72.78v.165l.995 2.69h1.533v8.507h3.751v-8.506h3.316v-2.856h-3.316v-1.014zM95.803 18.063H86.58c-1.106 0-1.91.29-2.414.87-.505.578-.757 1.351-.757 2.317v8.175h3.751v-7.368c0-.372.07-.634.208-.786.137-.152.372-.228.704-.228h4.58c.138 0 .207.076.207.228v1.552h.166l3.316-1.263v-2.938c0-.373-.18-.56-.54-.56M106.682 26.362c0 .165-.076.248-.228.248h-4.704c-.248 0-.425-.065-.528-.196-.104-.132-.156-.314-.156-.549v-.497c0-.248.052-.434.156-.559.103-.124.28-.186.528-.186h4.932v1.739zm1.596-8.299H97.71v2.815h8.186c.262 0 .46.069.59.206.132.138.197.366.197.683v2.297h-.145l-.704-1.676h-5.782c-.829 0-1.475.231-1.938.693-.463.463-.694 1.232-.694 2.308v.849c0 .607.059 1.114.176 1.52.117.408.29.736.518.984.228.248.504.424.83.527.324.104.693.156 1.108.156h9.926c.318 0 .477-.166.477-.497v-8.444c0-.786-.176-1.386-.528-1.8-.353-.414-.902-.621-1.648-.621zM123.116 24.416c0 .649-.118 1.09-.352 1.325-.235.235-.65.352-1.244.352h-4.082c-.594 0-1.005-.117-1.233-.352-.228-.234-.342-.676-.342-1.325v-1.593c0-.676.114-1.142.342-1.397.228-.255.639-.383 1.233-.383h4.082c.58 0 .992.124 1.233.373.242.248.363.717.363 1.407v1.593zm2.694-5.122c-.373-.393-.857-.696-1.45-.91-.595-.214-1.313-.321-2.156-.321h-5.47c-.844 0-1.559.107-2.146.32-.587.215-1.067.518-1.44.911s-.643.87-.808 1.428c-.166.56-.249 1.177-.249 1.852v2.34c0 .689.083 1.31.249 1.862.165.552.435 1.024.808 1.417.373.393.853.697 1.44.91.587.215 1.302.322 2.145.322h5.471c.843 0 1.561-.107 2.155-.321.594-.214 1.078-.518 1.451-.91.373-.394.642-.866.808-1.418.166-.552.249-1.173.249-1.863v-2.339c0-.675-.083-1.293-.249-1.852-.166-.559-.435-1.035-.808-1.428zM141.487 19.294c-.366-.393-.846-.696-1.44-.91-.594-.214-1.313-.321-2.155-.321h-9.285v11.362h3.751V19.387h.145l.622 1.656h4.062c.566 0 .974.131 1.222.393.25.263.373.725.373 1.387v6.602h3.751v-6.85c0-.69-.083-1.311-.248-1.863-.166-.552-.432-1.025-.798-1.418M145.725 15.614c-1.473 0-2.671-1.197-2.671-2.668 0-1.47 1.198-2.667 2.67-2.667 1.473 0 2.671 1.197 2.671 2.667 0 1.471-1.198 2.668-2.67 2.668m0-5.574c-1.605 0-2.91 1.304-2.91 2.906 0 1.603 1.305 2.906 2.91 2.906 1.604 0 2.91-1.303 2.91-2.906 0-1.602-1.306-2.906-2.91-2.906" mask="url(#y5tmtiy6cd)"/>
                    <path fill="#4D5DA3" d="M145.812 12.852h-.876v-1.018h.975c.228 0 .395.047.501.14.106.094.159.214.159.36 0 .098-.027.19-.082.275-.055.085-.135.146-.24.185-.105.038-.25.058-.437.058m.557.472c-.056-.05-.138-.102-.246-.153.296-.041.514-.136.656-.286.141-.15.212-.334.212-.552 0-.17-.043-.324-.128-.464-.086-.14-.2-.237-.343-.292-.143-.056-.351-.084-.626-.084h-1.366v3.077h.408v-1.366h.473c.105 0 .18.005.227.015.062.015.125.043.185.082.062.039.13.107.207.205.078.098.176.24.295.424l.408.64h.512l-.536-.837c-.106-.164-.219-.3-.338-.41" mask="url(#y5tmtiy6cd)"/>
                </g>
            </g>
        </g>
    </g>
</svg>
